<svg width="41" height="41" viewBox="0 0 41 41" fill="none" xmlns="http://www.w3.org/2000/svg">
<g clip-path="url(#clip0_104_7675)">
<path d="M22.5 15.7683C22.5 14.6637 21.6046 13.7683 20.5 13.7683C19.3954 13.7683 18.5 14.6637 18.5 15.7683V17.1016H22.5V15.7683Z" fill="white"/>
<path d="M23.8333 18.435H17.1667C16.7985 18.435 16.5 18.7335 16.5 19.1017V25.1017C16.5 25.4699 16.7985 25.7683 17.1667 25.7683H23.8333C24.2015 25.7683 24.5 25.4699 24.5 25.1017V19.1017C24.5 18.7335 24.2015 18.435 23.8333 18.435ZM21.1667 23.6483V23.7683C21.1667 24.1365 20.8682 24.435 20.5 24.435C20.1318 24.435 19.8333 24.1365 19.8333 23.7683V23.6483C18.915 23.3236 18.3641 22.3846 18.5288 21.4245C18.6935 20.4645 19.5259 19.7627 20.5 19.7627C21.4741 19.7627 22.3065 20.4645 22.4712 21.4245C22.6359 22.3846 22.085 23.3236 21.1667 23.6483Z" fill="white"/>
<path d="M20.5 10.435C14.9772 10.435 10.5 14.9122 10.5 20.435C10.5 25.9578 14.9772 30.435 20.5 30.435C26.0228 30.435 30.5 25.9578 30.5 20.435C30.4934 14.9149 26.0201 10.4416 20.5 10.435ZM25.8333 25.1017C25.83 26.2049 24.9365 27.0984 23.8333 27.1017H17.1667C16.0635 27.0984 15.17 26.2049 15.1667 25.1017V19.1017C15.17 17.9985 16.0635 17.105 17.1667 17.1017V15.7683C17.1667 13.9274 18.6591 12.435 20.5 12.435C22.3409 12.435 23.8333 13.9274 23.8333 15.7683V17.1017C24.9365 17.105 25.83 17.9985 25.8333 19.1017V25.1017Z" fill="white"/>
<path d="M20.4997 22.435C20.8679 22.435 21.1663 22.1365 21.1663 21.7684C21.1663 21.4002 20.8679 21.1017 20.4997 21.1017C20.1315 21.1017 19.833 21.4002 19.833 21.7684C19.833 22.1365 20.1315 22.435 20.4997 22.435Z" fill="white"/>
<path d="M7.16633 4.43501C7.64054 4.43358 8.07805 4.17951 8.31433 3.76834H14.4997V8.21634C14.4997 8.24301 14.5123 8.26901 14.5157 8.29568C14.5226 8.36469 14.5404 8.43218 14.5683 8.49568C14.596 8.55509 14.6329 8.60976 14.6777 8.65768C14.7 8.68187 14.7243 8.70417 14.7503 8.72434C14.783 8.75107 14.818 8.77472 14.855 8.79501C14.8858 8.81209 14.9179 8.8268 14.951 8.83901C14.9987 8.85414 15.0478 8.86398 15.0977 8.86834C15.1196 8.87434 15.1418 8.87901 15.1643 8.88234C15.2599 8.88033 15.3538 8.85759 15.4397 8.81568C16.2518 8.46353 17.0987 8.19763 17.9663 8.02234C18.3273 7.94871 18.5603 7.59635 18.4867 7.23534C18.413 6.87433 18.0607 6.64137 17.6997 6.71501C17.0661 6.84465 16.4423 7.01841 15.833 7.23501V3.76834C15.833 3.03196 15.236 2.43501 14.4997 2.43501H8.31433C7.99037 1.87392 7.30995 1.62692 6.7015 1.84954C6.09305 2.07216 5.7327 2.69995 5.84734 3.33762C5.96198 3.9753 6.51844 4.43826 7.16633 4.43501Z" fill="white"/>
<path d="M33.8337 36.435C33.3594 36.4364 32.9219 36.6905 32.6857 37.1017H26.5003V33.0717C27.9909 32.37 29.3452 31.4096 30.5003 30.235C30.6711 30.0657 30.7375 29.8176 30.674 29.5857C30.6106 29.3537 30.4272 29.1739 30.1941 29.1151C29.9609 29.0563 29.7142 29.1276 29.5483 29.3017C28.4164 30.4589 27.0727 31.388 25.5903 32.0383C25.5008 32.0739 25.4202 32.1287 25.3543 32.199C25.347 32.207 25.343 32.2177 25.3357 32.227C25.2869 32.2812 25.2475 32.3432 25.219 32.4103C25.2059 32.4522 25.1972 32.4953 25.193 32.539C25.1806 32.5767 25.1719 32.6156 25.167 32.655V32.667V37.1017C25.167 37.838 25.7639 38.435 26.5003 38.435H32.6857C33.0096 38.9961 33.69 39.2431 34.2985 39.0205C34.9069 38.7979 35.2673 38.1701 35.1526 37.5324C35.038 36.8947 34.4815 36.4317 33.8337 36.435Z" fill="white"/>
<path d="M3.16633 15.1017C3.64054 15.1003 4.07805 14.8462 4.31433 14.435H8.95966H8.97766C9.04344 14.4313 9.10834 14.418 9.17033 14.3957C9.19962 14.3863 9.22815 14.3747 9.25566 14.361C9.2912 14.3423 9.32471 14.32 9.35566 14.2944C9.41189 14.2519 9.46057 14.2003 9.49966 14.1417C9.50833 14.129 9.51966 14.1197 9.52766 14.1064C10.3825 12.6229 11.5297 11.3285 12.8997 10.3017C13.0902 10.1588 13.19 9.92508 13.1615 9.68861C13.1331 9.45215 12.9806 9.24884 12.7615 9.15528C12.5425 9.06172 12.2902 9.09212 12.0997 9.23502C10.6967 10.2919 9.50544 11.6036 8.58833 13.1017H4.31433C3.99037 12.5406 3.30995 12.2936 2.7015 12.5162C2.09305 12.7388 1.7327 13.3666 1.84734 14.0043C1.96198 14.642 2.51844 15.1049 3.16633 15.1017Z" fill="white"/>
<path d="M37.833 25.7683C37.3588 25.7697 36.9213 26.0238 36.685 26.435H33.1517C33.6363 25.4158 33.9945 24.3411 34.2184 23.235C34.292 22.874 34.0591 22.5216 33.698 22.448C33.337 22.3743 32.9847 22.6073 32.911 22.9683C32.6406 24.3048 32.1542 25.5883 31.471 26.7683V26.777C31.4312 26.8475 31.405 26.9248 31.3937 27.005C31.3937 27.0123 31.3937 27.019 31.389 27.0263C31.3824 27.0511 31.377 27.0763 31.373 27.1016C31.3771 27.154 31.3874 27.2057 31.4037 27.2556C31.4037 27.2643 31.4037 27.273 31.409 27.2816C31.4297 27.3535 31.4629 27.4212 31.507 27.4816C31.5137 27.4916 31.519 27.5016 31.5264 27.511C31.5715 27.5666 31.6256 27.6144 31.6864 27.6523C31.697 27.6596 31.7037 27.671 31.715 27.6776C31.7264 27.6843 31.731 27.6836 31.7384 27.6876C31.768 27.7028 31.7987 27.7155 31.8304 27.7256C31.8923 27.748 31.9573 27.761 32.023 27.7643C32.029 27.7643 32.0337 27.7676 32.0397 27.7676H36.685C37.0088 28.329 37.6892 28.5764 38.2979 28.3539C38.9065 28.1314 39.2671 27.5035 39.1524 26.8657C39.0377 26.2279 38.4811 25.7649 37.833 25.7683Z" fill="white"/>
<path d="M25.167 8.20298V8.21498C25.171 8.2543 25.1788 8.29315 25.1903 8.33098C25.1945 8.37464 25.2033 8.41776 25.2163 8.45964C25.2448 8.52679 25.2842 8.58874 25.333 8.64298C25.3403 8.65164 25.3443 8.66298 25.3517 8.67098C25.4175 8.74124 25.4981 8.7961 25.5877 8.83164C27.0698 9.48102 28.4134 10.4089 29.5457 11.565C29.71 11.7437 29.9584 11.819 30.1943 11.7615C30.4302 11.704 30.6162 11.5228 30.6798 11.2886C30.7435 11.0543 30.6747 10.8039 30.5003 10.635C29.3452 9.46038 27.9909 8.49996 26.5003 7.79831V3.76831H32.6857C32.9874 4.29093 33.6025 4.54573 34.1855 4.38954C34.7684 4.23335 35.1737 3.70512 35.1737 3.10164C35.1737 2.49817 34.7684 1.96993 34.1855 1.81374C33.6025 1.65755 32.9874 1.91235 32.6857 2.43498H26.5003C25.7639 2.43498 25.167 3.03193 25.167 3.76831V8.20231V8.20298Z" fill="white"/>
<path d="M15.8329 32.6664V32.655C15.8286 32.6176 15.8213 32.5806 15.8109 32.5444C15.8062 32.4991 15.797 32.4545 15.7835 32.411C15.7555 32.3449 15.7167 32.2839 15.6689 32.2304C15.6602 32.2204 15.6562 32.2084 15.6475 32.199C15.5814 32.1287 15.5006 32.0739 15.4109 32.0384C13.6658 31.2682 12.1154 30.1169 10.8735 28.669C10.7208 28.481 10.4781 28.3906 10.2395 28.4329C10.001 28.4753 9.80422 28.6437 9.72554 28.8728C9.64686 29.102 9.69868 29.3557 9.86087 29.5357C11.1429 31.028 12.723 32.2357 14.4995 33.081V37.1017H8.31421C8.01247 36.5791 7.39732 36.3243 6.81441 36.4805C6.2315 36.6367 5.82617 37.1649 5.82617 37.7684C5.82617 38.3718 6.2315 38.9001 6.81441 39.0563C7.39732 39.2125 8.01247 38.9577 8.31421 38.435H14.4995C15.2359 38.435 15.8329 37.8381 15.8329 37.1017V32.6664Z" fill="white"/>
<path d="M23.0338 32.8483C21.3616 33.1841 19.6393 33.1841 17.9671 32.8483C17.7312 32.7942 17.4846 32.8722 17.3226 33.052C17.1607 33.2319 17.1089 33.4853 17.1874 33.7143C17.2659 33.9432 17.4622 34.1116 17.7004 34.1543C18.4042 34.2911 19.1174 34.3738 19.8338 34.4017V39.7683C19.8338 40.1365 20.1323 40.435 20.5004 40.435C20.8686 40.435 21.1671 40.1365 21.1671 39.7683V34.4017C21.8835 34.3738 22.5967 34.2911 23.3004 34.1543C23.6532 34.0734 23.877 33.7258 23.8046 33.3712C23.7322 33.0165 23.39 32.7845 23.0338 32.8483Z" fill="white"/>
<path d="M20.4997 7.76833C21.3505 7.76815 22.1991 7.85302 23.033 8.02167C23.0769 8.03069 23.1216 8.03515 23.1663 8.035C23.5076 8.03369 23.7928 7.7749 23.8271 7.43537C23.8614 7.09584 23.6338 6.78522 23.2997 6.71566C22.5959 6.57888 21.8827 6.49619 21.1663 6.46833V1.10166C21.1663 0.733474 20.8679 0.434998 20.4997 0.434998C20.1315 0.434998 19.833 0.733474 19.833 1.10166V7.10167C19.833 7.46985 20.1315 7.76833 20.4997 7.76833Z" fill="white"/>
<path d="M8.9599 27.7683C8.96523 27.7683 8.9699 27.765 8.9759 27.765C9.04221 27.762 9.10766 27.7488 9.1699 27.7257C9.20099 27.7155 9.2313 27.703 9.26056 27.6883C9.2679 27.6843 9.27656 27.683 9.2839 27.6783C9.29123 27.6737 9.30256 27.6597 9.31323 27.6523C9.3737 27.6151 9.42736 27.5677 9.4719 27.5123C9.47976 27.5021 9.48711 27.4914 9.4939 27.4803C9.53705 27.4196 9.56952 27.352 9.5899 27.2803C9.5899 27.2703 9.5939 27.2603 9.5959 27.2503C9.61202 27.2022 9.62232 27.1523 9.62656 27.1017C9.62312 27.0765 9.618 27.0515 9.61123 27.027C9.61123 27.0183 9.61123 27.0103 9.60656 27.001C9.59525 26.9228 9.56972 26.8473 9.53123 26.7783L9.5279 26.7677C8.8443 25.5877 8.35748 24.3042 8.08656 22.9677C8.01292 22.6069 7.66072 22.374 7.2999 22.4477C6.93907 22.5213 6.70626 22.8735 6.7799 23.2343C7.0042 24.3404 7.36239 25.4149 7.84656 26.4343H4.31323C4.01149 25.9117 3.39635 25.6569 2.81344 25.8131C2.23053 25.9693 1.8252 26.4975 1.8252 27.101C1.8252 27.7045 2.23053 28.2327 2.81344 28.3889C3.39635 28.5451 4.01149 28.2903 4.31323 27.7677L8.9599 27.7683Z" fill="white"/>
<path d="M39.833 19.7683H34.4777C34.3903 17.9199 33.9371 16.1071 33.1444 14.435H36.6837C36.9855 14.9576 37.6006 15.2124 38.1835 15.0562C38.7664 14.9 39.1717 14.3718 39.1717 13.7683C39.1717 13.1649 38.7664 12.6366 38.1835 12.4804C37.6006 12.3242 36.9855 12.579 36.6837 13.1017H32.0397C32.027 13.1017 32.017 13.1083 32.005 13.1083C31.9664 13.1125 31.9282 13.1203 31.891 13.1317C31.8363 13.1425 31.7832 13.1604 31.733 13.185C31.7277 13.185 31.721 13.185 31.715 13.1917C31.709 13.1983 31.6977 13.2097 31.6864 13.217C31.6256 13.2549 31.5715 13.3027 31.5264 13.3583C31.519 13.3677 31.5137 13.3777 31.507 13.3877C31.4629 13.4481 31.4297 13.5158 31.409 13.5877C31.409 13.5963 31.409 13.605 31.4037 13.6137C31.3873 13.6638 31.377 13.7157 31.373 13.7683C31.3766 13.7939 31.3815 13.8193 31.3877 13.8443C31.3877 13.8517 31.391 13.8583 31.3924 13.8657C31.4036 13.9458 31.4299 14.0232 31.4697 14.0937V14.1023C32.5816 16.0276 33.1667 18.2117 33.1664 20.435C33.1664 20.8032 33.4649 21.1017 33.833 21.1017H39.833C40.2012 21.1017 40.4997 20.8032 40.4997 20.435C40.4997 20.0668 40.2012 19.7683 39.833 19.7683Z" fill="white"/>
<path d="M7.83333 20.435C7.83192 19.088 8.0455 17.7494 8.466 16.4697C8.54043 16.2434 8.48849 15.9946 8.32976 15.817C8.17102 15.6394 7.92959 15.56 7.69642 15.6087C7.46325 15.6574 7.27376 15.8267 7.19933 16.053C6.80769 17.2552 6.58118 18.5051 6.526 19.7683H1.16667C0.798477 19.7683 0.5 20.0668 0.5 20.435C0.5 20.8032 0.798477 21.1017 1.16667 21.1017H7.16667C7.53486 21.1017 7.83333 20.8032 7.83333 20.435Z" fill="white"/>
</g>
<defs>
<clipPath id="clip0_104_7675">
<rect width="40" height="40" fill="white" transform="translate(0.5 0.434998)"/>
</clipPath>
</defs>
</svg>
