<svg width="40" height="41" viewBox="0 0 40 41" fill="none" xmlns="http://www.w3.org/2000/svg">
<path fill-rule="evenodd" clip-rule="evenodd" d="M14.2398 1.25195C10.1887 1.25195 6.90456 4.53602 6.90456 8.58719C6.90456 12.6383 10.1887 15.9223 14.2398 15.9223C18.2909 15.9223 21.575 12.6383 21.575 8.58719C21.575 4.53609 18.291 1.25195 14.2398 1.25195ZM31.0548 26.3541C31.5005 25.906 32.2251 25.904 32.6733 26.3497C33.1215 26.7954 33.1235 27.52 32.6778 27.9682L28.8552 31.8267C28.4124 32.2719 27.6946 32.2767 27.2458 31.84L25.3545 29.9966C24.9014 29.5558 24.8914 28.8312 25.3321 28.378C25.7728 27.9249 26.4974 27.9149 26.9506 28.3556L28.0297 29.4076L31.0548 26.3541ZM37.5363 34.1317C39.1017 33.5898 39.8189 31.3826 38.871 30.024C38.4722 29.4524 38.4721 28.7285 38.8709 28.157C39.8188 26.7985 39.1017 24.5912 37.5363 24.0492C36.8777 23.8212 36.4521 23.2356 36.4389 22.5388C36.4072 20.8826 34.5296 19.5184 32.9446 20C32.2778 20.2027 31.5892 19.9791 31.1689 19.4231C30.1698 18.1018 27.8489 18.1017 26.8498 19.423C26.4295 19.9789 25.741 20.2027 25.0742 20.0001C23.4892 19.5184 21.6116 20.8825 21.5799 22.5387C21.5665 23.2355 21.1411 23.8212 20.4825 24.0492C18.9171 24.5911 18.1999 26.7984 19.1478 28.157C19.5465 28.7285 19.5466 29.4524 19.1478 30.024C18.1999 31.3825 18.9171 33.5898 20.4824 34.1318C21.141 34.3598 21.5666 34.9454 21.5799 35.6422C21.6115 37.2984 23.4891 38.6627 25.0741 38.181C25.7409 37.9784 26.4294 38.202 26.8497 38.7579C27.8489 40.0793 30.1697 40.0793 31.1689 38.758C31.5892 38.202 32.2777 37.9784 32.9445 38.181C34.5295 38.6627 36.4071 37.2985 36.4388 35.6423C36.4521 34.9453 36.8776 34.3597 37.5363 34.1317ZM29.0093 22.6948C25.4771 22.6948 22.6137 25.5583 22.6137 29.0905C22.6137 32.6227 25.4771 35.4861 29.0093 35.4861C32.5415 35.4861 35.4049 32.6227 35.4049 29.0905C35.4049 25.5582 32.5415 22.6948 29.0093 22.6948ZM0.705884 29.185C1.23057 22.1909 7.11745 16.6306 14.2399 16.6306C17.2392 16.6306 20.0192 17.6167 22.2721 19.2805C21.1609 19.9713 20.356 21.1637 20.3301 22.5147C20.3268 22.6876 20.2371 22.8113 20.0736 22.8679C17.7251 23.6809 16.7006 26.8339 18.1226 28.8721C18.2215 29.0139 18.2217 29.1668 18.1227 29.3086C17.9274 29.5885 17.7785 29.8895 17.6725 30.2026H1.65002C1.09588 30.2026 0.6644 29.7377 0.705884 29.185Z" fill="#7A60FF"/>
</svg>
