<svg width="40" height="41" viewBox="0 0 40 41" fill="none" xmlns="http://www.w3.org/2000/svg">
<path fill-rule="evenodd" clip-rule="evenodd" d="M14.2398 1.25159C10.1887 1.25159 6.90456 4.53565 6.90456 8.58682C6.90456 12.6379 10.1887 15.922 14.2398 15.922C18.2909 15.922 21.575 12.6379 21.575 8.58682C21.575 4.53573 18.291 1.25159 14.2398 1.25159ZM31.0548 26.3538C31.5005 25.9057 32.2251 25.9036 32.6733 26.3493C33.1215 26.795 33.1235 27.5196 32.6778 27.9678L28.8552 31.8264C28.4124 32.2715 27.6946 32.2764 27.2458 31.8396L25.3545 29.9962C24.9014 29.5554 24.8914 28.8308 25.3321 28.3777C25.7728 27.9246 26.4974 27.9146 26.9506 28.3553L28.0297 29.4072L31.0548 26.3538ZM37.5363 34.1314C39.1017 33.5894 39.8189 31.3822 38.871 30.0236C38.4722 29.4521 38.4721 28.7281 38.8709 28.1567C39.8188 26.7982 39.1017 24.5909 37.5363 24.0489C36.8777 23.8208 36.4521 23.2353 36.4389 22.5385C36.4072 20.8822 34.5296 19.518 32.9446 19.9996C32.2778 20.2023 31.5892 19.9787 31.1689 19.4228C30.1698 18.1014 27.8489 18.1014 26.8498 19.4227C26.4295 19.9785 25.741 20.2024 25.0742 19.9997C23.4892 19.518 21.6116 20.8821 21.5799 22.5384C21.5665 23.2352 21.1411 23.8209 20.4825 24.0489C18.9171 24.5907 18.1999 26.798 19.1478 28.1566C19.5465 28.7281 19.5466 29.4521 19.1478 30.0236C18.1999 31.3821 18.9171 33.5895 20.4824 34.1314C21.141 34.3594 21.5666 34.945 21.5799 35.6418C21.6115 37.2981 23.4891 38.6623 25.0741 38.1806C25.7409 37.978 26.4294 38.2016 26.8497 38.7575C27.8489 40.0789 30.1697 40.0789 31.1689 38.7576C31.5892 38.2017 32.2777 37.978 32.9445 38.1806C34.5295 38.6624 36.4071 37.2981 36.4388 35.6419C36.4521 34.9449 36.8776 34.3593 37.5363 34.1314ZM29.0093 22.6945C25.4771 22.6945 22.6137 25.5579 22.6137 29.0901C22.6137 32.6223 25.4771 35.4857 29.0093 35.4857C32.5415 35.4857 35.4049 32.6223 35.4049 29.0901C35.4049 25.5578 32.5415 22.6945 29.0093 22.6945ZM0.705884 29.1846C1.23057 22.1906 7.11745 16.6303 14.2399 16.6303C17.2392 16.6303 20.0192 17.6164 22.2721 19.2802C21.1609 19.971 20.356 21.1633 20.3301 22.5143C20.3268 22.6872 20.2371 22.811 20.0736 22.8675C17.7251 23.6805 16.7006 26.8335 18.1226 28.8717C18.2215 29.0135 18.2217 29.1664 18.1227 29.3082C17.9274 29.5882 17.7785 29.8892 17.6725 30.2022H1.65002C1.09588 30.2022 0.6644 29.7373 0.705884 29.1846Z" fill="#844DB4"/>
</svg>
