<svg width="40" height="41" viewBox="0 0 40 41" fill="none" xmlns="http://www.w3.org/2000/svg">
<path d="M13.5515 32.6036C14.0788 31.943 13.9758 30.9733 13.3152 30.4461C13 30.1915 12.6606 30.0703 12.3091 30.0703C12.2485 30.0703 12.1879 30.0764 12.1273 30.0824C11.7152 30.1309 11.3515 30.337 11.1031 30.6643L9.07275 33.2885C8.84245 33.5794 8.72729 33.9067 8.72729 34.2461C8.72729 34.7127 8.93942 35.1491 9.30305 35.4461C9.9576 35.9733 10.9273 35.8643 11.4606 35.2097L13.5515 32.6036Z" fill="#7A60FF"/>
<path d="M8.1878 32.4394L10.2302 29.8091C10.4605 29.5061 10.5878 29.1485 10.5878 28.7727C10.5878 28.2515 10.3514 27.7667 9.93932 27.4394C9.64841 27.2091 9.29084 27.0879 8.92114 27.0879C8.84841 27.0879 8.77568 27.094 8.70296 27.1C8.25447 27.1546 7.86053 27.3849 7.58781 27.7364L5.54538 30.3667C4.98174 31.1 5.10902 32.1546 5.83629 32.7182C6.19387 32.997 6.63023 33.1182 7.07265 33.0636C7.52114 33.0152 7.91508 32.7909 8.1878 32.4394Z" fill="#7A60FF"/>
<path d="M4.30307 24.3853L6.12731 21.9126L6.78792 21.0156C6.79398 21.0096 6.79398 21.0096 6.80004 21.0035L10.7637 15.6278L10.7819 15.6096L10.8728 15.4884C10.9516 15.3853 10.9334 15.2156 10.8182 15.1308L7.94549 12.8641C7.88489 12.8156 7.82428 12.8096 7.78186 12.8096C7.76974 12.8096 7.75761 12.8096 7.74549 12.8096C7.70307 12.8156 7.62428 12.8338 7.56367 12.9126L0.660645 22.2823C0.569736 22.4035 0.593978 22.5671 0.70913 22.6641L3.55761 24.9126C3.61822 24.9611 3.69095 24.9793 3.76974 24.9671C3.81822 24.9611 3.89095 24.9368 3.95155 24.8581L4.29701 24.3914C4.29701 24.3914 4.29701 24.3853 4.30307 24.3853Z" fill="#7A60FF"/>
<path d="M16.3636 35.3248L16.3879 35.2884C16.3939 35.2823 16.4 35.2763 16.4 35.2702C16.406 35.2581 16.4182 35.2399 16.4242 35.2278C16.5757 35.0096 16.6545 34.749 16.6545 34.4823C16.6545 34.0581 16.4606 33.6702 16.1273 33.4217C15.8909 33.246 15.6182 33.1611 15.3394 33.1611C14.9515 33.1611 14.5636 33.3308 14.3091 33.652L12.7636 35.5672C12.5333 35.852 12.4363 36.2096 12.4848 36.5733C12.5333 36.9308 12.7151 37.2399 13.006 37.4581L13.1151 37.549C13.3576 37.7308 13.7091 37.8157 14.0606 37.7672C14.4121 37.7187 14.7151 37.5308 14.9273 37.252L16.3636 35.3248Z" fill="#7A60FF"/>
<path d="M20.0001 12.1367C22.9576 12.1367 25.3637 9.73059 25.3637 6.77302C25.3637 3.81544 22.9576 1.40332 20.0001 1.40332C17.0425 1.40332 14.6304 3.80938 14.6304 6.77302C14.6304 9.73059 17.0425 12.1367 20.0001 12.1367ZM17.3273 6.63968C17.5637 6.40332 17.9455 6.40332 18.1819 6.63968L19.0486 7.50635L21.8122 4.74271C22.0486 4.50635 22.4304 4.50635 22.6667 4.74271C22.9031 4.97908 22.9031 5.3609 22.6667 5.59726L19.4789 8.78514C19.3637 8.90029 19.2122 8.9609 19.0486 8.9609C18.8849 8.9609 18.7334 8.89423 18.6182 8.78514L17.3213 7.48817C17.091 7.25787 17.091 6.87605 17.3273 6.63968Z" fill="#7A60FF"/>
<path d="M30.9394 19.4338L29.6182 16.1732L28.8363 16.6096C28.2909 16.9187 27.6303 17.046 26.9879 16.9551L20.1515 15.9429C19.3151 15.8217 18.4485 16.1005 17.8424 16.6823L17.1939 17.3066C17.1939 17.3066 17.1939 17.3066 17.1879 17.3126L14.6788 19.7187C14.5151 19.8763 14.4788 20.0581 14.4788 20.1854C14.4788 20.3854 14.5757 20.652 14.8485 20.7793C16.0848 21.3732 17.5394 21.3429 18.7515 20.7066L19.4121 20.3611C19.8363 20.1369 20.303 20.0278 20.7697 20.0278C21.4242 20.0278 22.0727 20.246 22.6 20.6763L22.9272 20.9369L29.0303 25.8278C29.3272 26.0581 29.6363 26.252 29.9515 26.3854C30.0545 26.4278 30.1757 26.4763 30.2909 26.5187C30.3697 26.549 30.4545 26.5793 30.5394 26.5975C30.6545 26.6338 30.7394 26.652 30.8242 26.6641C30.9575 26.6884 31.0788 26.7126 31.2 26.7187C31.3454 26.7369 31.4485 26.7429 31.5515 26.7429C31.8121 26.749 32.0363 26.7429 32.2424 26.7126L33.7939 26.4944L30.9394 19.4338Z" fill="#7A60FF"/>
<path d="M34.6182 13.0035C34.5819 12.9126 34.5213 12.8701 34.4728 12.8519C34.4364 12.8338 34.3516 12.8156 34.2607 12.858L30.5455 14.5065C30.4061 14.5671 30.3395 14.7247 30.394 14.858L30.6546 15.5004L31.2001 16.8398L35.1576 26.6095C35.2485 26.7671 35.394 26.8035 35.5092 26.7489L39.2304 25.1065C39.3637 25.0459 39.4243 24.8944 39.3698 24.755L34.6182 13.0035Z" fill="#7A60FF"/>
<path d="M31.091 27.9127C30.9637 27.9067 30.8001 27.8764 30.6365 27.8461C30.5153 27.8279 30.3698 27.7976 30.2244 27.7491C30.1274 27.7249 30.0062 27.6824 29.891 27.6461C29.7577 27.5976 29.6183 27.543 29.4789 27.4824C29.0668 27.3006 28.6728 27.0582 28.291 26.7612L21.8547 21.6097C21.3213 21.1794 20.588 21.1067 19.9819 21.4218L19.3213 21.7673C17.7819 22.5794 15.9153 22.6158 14.3395 21.8643C13.685 21.5552 13.2728 20.9067 13.2728 20.1794C13.2728 19.6703 13.4728 19.1976 13.8425 18.84L15.2547 17.4885H12.7516C12.2971 17.4885 11.8607 17.3249 11.5274 17.0279L11.3516 16.8643L7.76981 21.7309C7.75163 21.7491 7.7395 21.7733 7.72132 21.7915L7.40011 22.2279L6.40617 23.5794L5.63647 24.6218L6.00617 24.9006C6.53344 25.2824 6.85466 25.9188 6.85466 26.5976V26.7733C7.3092 26.3006 7.90314 25.9915 8.56375 25.9067C9.33344 25.8097 10.091 26.0158 10.6971 26.4885C11.4062 27.0461 11.8062 27.8764 11.8062 28.7733C11.8062 28.8218 11.794 28.8703 11.794 28.9188C11.8607 28.9067 11.9274 28.8824 11.9941 28.8764C12.7334 28.7915 13.4607 28.9976 14.0425 29.4703C14.8244 30.1067 15.1759 31.0521 15.0789 31.9612C15.691 31.8946 16.3274 32.0521 16.8607 32.4521C17.5031 32.9309 17.8789 33.6703 17.8789 34.4824C17.8789 34.5006 17.8728 34.5188 17.8728 34.543C18.491 34.4461 19.1395 34.5673 19.6789 34.9127C20.4183 35.3915 20.8607 36.2037 20.8607 37.0885C20.8607 37.5976 20.7153 38.0824 20.4486 38.4946L20.4668 38.5067C21.0183 38.9249 21.8607 38.8764 22.3516 38.3794C22.6486 38.0824 22.8001 37.6824 22.7698 37.2643C22.7456 36.8521 22.5395 36.4703 22.2062 36.2158L18.6001 33.4037C18.3395 33.1976 18.291 32.8158 18.4971 32.5552C18.7031 32.2946 19.085 32.2461 19.3456 32.4521L23.4668 35.6643C23.9819 36.0582 24.7092 36.0097 25.1698 35.5491C25.4425 35.2764 25.5759 34.9067 25.5456 34.5249C25.5153 34.143 25.3213 33.7976 25.0062 33.5794C24.691 33.3612 25.0062 33.5794 25.0001 33.5794L20.8244 30.5915C20.5516 30.3976 20.491 30.0158 20.685 29.743C20.8789 29.4703 21.2547 29.4097 21.5334 29.6037L25.9031 32.7309C26.5698 33.2037 27.4971 33.0885 28.0244 32.4643C28.3092 32.1249 28.4365 31.6946 28.3819 31.2582C28.3274 30.8218 28.1031 30.434 27.7456 30.1733L25.6486 28.6158L23.1577 26.7673C22.891 26.5673 22.8304 26.1915 23.0304 25.9188C23.0789 25.8521 23.1395 25.8037 23.2001 25.7673L23.2062 25.7612C23.4122 25.64 23.6728 25.6461 23.8789 25.7915L28.9456 29.537C29.4971 29.943 30.3092 29.8824 30.8122 29.3915C31.1941 29.0097 31.3213 28.44 31.1577 27.9309C31.1334 27.9188 31.1092 27.9188 31.091 27.9127Z" fill="#7A60FF"/>
<path d="M19.1395 38.2757L19.4243 37.8333C19.5698 37.6151 19.6425 37.3545 19.6425 37.0817C19.6425 36.609 19.4061 36.1726 19.0182 35.9242C18.5758 35.6393 18.0001 35.6393 17.5455 35.912C17.497 35.9363 17.4789 35.9605 17.4485 35.9848C17.4425 35.9908 17.4304 35.9969 17.4243 36.0029C17.4182 36.0029 17.4182 36.009 17.4122 36.0151C17.3879 36.0333 17.3576 36.0696 17.3334 36.0939C17.1637 36.306 16.7334 36.8636 16.3516 37.3666C16.1334 37.6757 16.0485 38.0454 16.1152 38.4151C16.1879 38.7908 16.4001 39.106 16.7213 39.312L16.8061 39.3666C17.1031 39.5605 17.4728 39.6333 17.8243 39.5545C18.1879 39.4757 18.497 39.2636 18.697 38.9545L19.1395 38.2757C19.1334 38.2817 19.1334 38.2817 19.1395 38.2757Z" fill="#7A60FF"/>
</svg>
