<svg width="40" height="41" viewBox="0 0 40 41" fill="none" xmlns="http://www.w3.org/2000/svg">
<path d="M13.5515 32.603C14.0788 31.9424 13.9758 30.9727 13.3152 30.4455C13 30.1909 12.6606 30.0697 12.3091 30.0697C12.2485 30.0697 12.1879 30.0758 12.1273 30.0818C11.7152 30.1303 11.3515 30.3364 11.1031 30.6636L9.07275 33.2879C8.84245 33.5788 8.72729 33.9061 8.72729 34.2455C8.72729 34.7121 8.93942 35.1485 9.30305 35.4455C9.9576 35.9727 10.9273 35.8636 11.4606 35.2091L13.5515 32.603Z" fill="#844DB4"/>
<path d="M8.1878 32.4394L10.2302 29.8091C10.4605 29.5061 10.5878 29.1485 10.5878 28.7727C10.5878 28.2515 10.3514 27.7667 9.93932 27.4394C9.64841 27.2091 9.29084 27.0879 8.92114 27.0879C8.84841 27.0879 8.77568 27.094 8.70296 27.1C8.25447 27.1546 7.86053 27.3849 7.58781 27.7364L5.54538 30.3667C4.98174 31.1 5.10902 32.1546 5.83629 32.7182C6.19387 32.997 6.63023 33.1182 7.07265 33.0636C7.52114 33.0152 7.91508 32.7909 8.1878 32.4394Z" fill="#844DB4"/>
<path d="M4.30307 24.3848L6.12731 21.9121L6.78792 21.0151C6.79398 21.0091 6.79398 21.0091 6.80004 21.003L10.7637 15.6273L10.7819 15.6091L10.8728 15.4879C10.9516 15.3848 10.9334 15.2151 10.8182 15.1303L7.94549 12.8636C7.88489 12.8151 7.82428 12.8091 7.78186 12.8091C7.76974 12.8091 7.75761 12.8091 7.74549 12.8091C7.70307 12.8151 7.62428 12.8333 7.56367 12.9121L0.660645 22.2818C0.569736 22.403 0.593978 22.5667 0.70913 22.6636L3.55761 24.9121C3.61822 24.9606 3.69095 24.9788 3.76974 24.9667C3.81822 24.9606 3.89095 24.9364 3.95155 24.8576L4.29701 24.3909C4.29701 24.3909 4.29701 24.3848 4.30307 24.3848Z" fill="#844DB4"/>
<path d="M16.3636 35.3243L16.3879 35.2879C16.3939 35.2819 16.4 35.2758 16.4 35.2697C16.406 35.2576 16.4182 35.2394 16.4242 35.2273C16.5757 35.0091 16.6545 34.7485 16.6545 34.4819C16.6545 34.0576 16.4606 33.6697 16.1273 33.4213C15.8909 33.2455 15.6182 33.1606 15.3394 33.1606C14.9515 33.1606 14.5636 33.3303 14.3091 33.6516L12.7636 35.5667C12.5333 35.8516 12.4363 36.2091 12.4848 36.5728C12.5333 36.9303 12.7151 37.2394 13.006 37.4576L13.1151 37.5485C13.3576 37.7303 13.7091 37.8152 14.0606 37.7667C14.4121 37.7182 14.7151 37.5303 14.9273 37.2516L16.3636 35.3243Z" fill="#844DB4"/>
<path d="M20.0001 12.1364C22.9576 12.1364 25.3637 9.73035 25.3637 6.77277C25.3637 3.8152 22.9576 1.40308 20.0001 1.40308C17.0425 1.40308 14.6304 3.80914 14.6304 6.77277C14.6304 9.73035 17.0425 12.1364 20.0001 12.1364ZM17.3273 6.63944C17.5637 6.40308 17.9455 6.40308 18.1819 6.63944L19.0486 7.50611L21.8122 4.74247C22.0486 4.50611 22.4304 4.50611 22.6667 4.74247C22.9031 4.97883 22.9031 5.36065 22.6667 5.59702L19.4789 8.78489C19.3637 8.90005 19.2122 8.96065 19.0486 8.96065C18.8849 8.96065 18.7334 8.89398 18.6182 8.78489L17.3213 7.48792C17.091 7.25762 17.091 6.8758 17.3273 6.63944Z" fill="#844DB4"/>
<path d="M30.9394 19.4334L29.6182 16.1727L28.8363 16.6091C28.2909 16.9182 27.6303 17.0455 26.9879 16.9546L20.1515 15.9424C19.3151 15.8212 18.4485 16.1 17.8424 16.6818L17.1939 17.3061C17.1939 17.3061 17.1939 17.3061 17.1879 17.3121L14.6788 19.7182C14.5151 19.8758 14.4788 20.0576 14.4788 20.1849C14.4788 20.3849 14.5757 20.6515 14.8485 20.7788C16.0848 21.3727 17.5394 21.3424 18.7515 20.7061L19.4121 20.3606C19.8363 20.1364 20.303 20.0273 20.7697 20.0273C21.4242 20.0273 22.0727 20.2455 22.6 20.6758L22.9272 20.9364L29.0303 25.8273C29.3272 26.0576 29.6363 26.2515 29.9515 26.3849C30.0545 26.4273 30.1757 26.4758 30.2909 26.5182C30.3697 26.5485 30.4545 26.5788 30.5394 26.597C30.6545 26.6334 30.7394 26.6515 30.8242 26.6637C30.9575 26.6879 31.0788 26.7121 31.2 26.7182C31.3454 26.7364 31.4485 26.7424 31.5515 26.7424C31.8121 26.7485 32.0363 26.7424 32.2424 26.7121L33.7939 26.494L30.9394 19.4334Z" fill="#844DB4"/>
<path d="M34.6182 13.0031C34.5819 12.9122 34.5213 12.8698 34.4728 12.8516C34.4364 12.8334 34.3516 12.8152 34.2607 12.8576L30.5455 14.5061C30.4061 14.5667 30.3395 14.7243 30.394 14.8576L30.6546 15.5001L31.2001 16.8395L35.1576 26.6092C35.2485 26.7667 35.394 26.8031 35.5092 26.7486L39.2304 25.1061C39.3637 25.0455 39.4243 24.894 39.3698 24.7546L34.6182 13.0031Z" fill="#844DB4"/>
<path d="M31.091 27.9121C30.9637 27.9061 30.8001 27.8758 30.6365 27.8455C30.5153 27.8273 30.3698 27.797 30.2244 27.7485C30.1274 27.7243 30.0062 27.6818 29.891 27.6455C29.7577 27.597 29.6183 27.5424 29.4789 27.4818C29.0668 27.3 28.6728 27.0576 28.291 26.7606L21.8547 21.6091C21.3213 21.1788 20.588 21.1061 19.9819 21.4212L19.3213 21.7667C17.7819 22.5788 15.9153 22.6152 14.3395 21.8636C13.685 21.5546 13.2728 20.9061 13.2728 20.1788C13.2728 19.6697 13.4728 19.197 13.8425 18.8394L15.2547 17.4879H12.7516C12.2971 17.4879 11.8607 17.3243 11.5274 17.0273L11.3516 16.8636L7.76981 21.7303C7.75163 21.7485 7.7395 21.7727 7.72132 21.7909L7.40011 22.2273L6.40617 23.5788L5.63647 24.6212L6.00617 24.9C6.53344 25.2818 6.85466 25.9182 6.85466 26.597V26.7727C7.3092 26.3 7.90314 25.9909 8.56375 25.9061C9.33344 25.8091 10.091 26.0152 10.6971 26.4879C11.4062 27.0455 11.8062 27.8758 11.8062 28.7727C11.8062 28.8212 11.794 28.8697 11.794 28.9182C11.8607 28.9061 11.9274 28.8818 11.9941 28.8758C12.7334 28.7909 13.4607 28.997 14.0425 29.4697C14.8244 30.1061 15.1759 31.0515 15.0789 31.9606C15.691 31.894 16.3274 32.0515 16.8607 32.4515C17.5031 32.9303 17.8789 33.6697 17.8789 34.4818C17.8789 34.5 17.8728 34.5182 17.8728 34.5424C18.491 34.4455 19.1395 34.5667 19.6789 34.9121C20.4183 35.3909 20.8607 36.203 20.8607 37.0879C20.8607 37.597 20.7153 38.0818 20.4486 38.4939L20.4668 38.5061C21.0183 38.9243 21.8607 38.8758 22.3516 38.3788C22.6486 38.0818 22.8001 37.6818 22.7698 37.2636C22.7456 36.8515 22.5395 36.4697 22.2062 36.2152L18.6001 33.403C18.3395 33.197 18.291 32.8152 18.4971 32.5546C18.7031 32.294 19.085 32.2455 19.3456 32.4515L23.4668 35.6636C23.9819 36.0576 24.7092 36.0091 25.1698 35.5485C25.4425 35.2758 25.5759 34.9061 25.5456 34.5243C25.5153 34.1424 25.3213 33.797 25.0062 33.5788C24.691 33.3606 25.0062 33.5788 25.0001 33.5788L20.8244 30.5909C20.5516 30.397 20.491 30.0152 20.685 29.7424C20.8789 29.4697 21.2547 29.4091 21.5334 29.603L25.9031 32.7303C26.5698 33.203 27.4971 33.0879 28.0244 32.4636C28.3092 32.1243 28.4365 31.694 28.3819 31.2576C28.3274 30.8212 28.1031 30.4333 27.7456 30.1727L25.6486 28.6152L23.1577 26.7667C22.891 26.5667 22.8304 26.1909 23.0304 25.9182C23.0789 25.8515 23.1395 25.803 23.2001 25.7667L23.2062 25.7606C23.4122 25.6394 23.6728 25.6455 23.8789 25.7909L28.9456 29.5364C29.4971 29.9424 30.3092 29.8818 30.8122 29.3909C31.1941 29.0091 31.3213 28.4394 31.1577 27.9303C31.1334 27.9182 31.1092 27.9182 31.091 27.9121Z" fill="#844DB4"/>
<path d="M19.1395 38.2758L19.4243 37.8334C19.5698 37.6152 19.6425 37.3546 19.6425 37.0819C19.6425 36.6091 19.4061 36.1728 19.0182 35.9243C18.5758 35.6394 18.0001 35.6394 17.5455 35.9122C17.497 35.9364 17.4789 35.9606 17.4485 35.9849C17.4425 35.9909 17.4304 35.997 17.4243 36.0031C17.4182 36.0031 17.4182 36.0091 17.4122 36.0152C17.3879 36.0334 17.3576 36.0697 17.3334 36.094C17.1637 36.3061 16.7334 36.8637 16.3516 37.3667C16.1334 37.6758 16.0485 38.0455 16.1152 38.4152C16.1879 38.7909 16.4001 39.1061 16.7213 39.3122L16.8061 39.3667C17.1031 39.5606 17.4728 39.6334 17.8243 39.5546C18.1879 39.4758 18.497 39.2637 18.697 38.9546L19.1395 38.2758C19.1334 38.2819 19.1334 38.2819 19.1395 38.2758Z" fill="#844DB4"/>
</svg>
