<svg width="23" height="23" viewBox="0 0 23 23" fill="none" xmlns="http://www.w3.org/2000/svg">
<path d="M21.9686 9.06183V20.9206C21.9686 21.0569 21.955 21.1659 21.9278 21.2477C21.9823 21.384 21.9823 21.5135 21.9278 21.6362C21.8732 21.7589 21.7642 21.8202 21.6006 21.8202C21.5734 21.8202 21.5461 21.8066 21.5188 21.7793C21.3553 21.9156 21.1508 21.9838 20.9054 21.9838H2.09504C1.84968 21.9838 1.64522 21.9156 1.48166 21.7793C1.31809 21.8338 1.18859 21.7929 1.09318 21.6566C0.997764 21.5203 0.990949 21.384 1.07273 21.2477C1.07273 21.2204 1.06592 21.1864 1.05229 21.1455C1.03866 21.1046 1.03184 21.0705 1.03184 21.0432C1.03184 21.016 1.03184 20.9751 1.03184 20.9206V9.06183C1.03184 9.03457 1.03866 9.00731 1.05229 8.98005C1.06592 8.95278 1.07273 8.93234 1.07273 8.91871C1.07273 8.90508 1.07955 8.89145 1.09318 8.87782C1.10681 8.86419 1.12726 8.84374 1.15452 8.81648L4.50768 6.19938V3.50049C4.50768 3.30966 4.55539 3.13246 4.6508 2.96889C4.74622 2.80532 4.87571 2.67583 5.03928 2.58042C5.20285 2.485 5.38004 2.4373 5.57087 2.4373H9.33296L10.846 1.25142C11.2822 0.924284 11.7183 0.924284 12.1545 1.25142L13.6675 2.4373H17.4296C17.7295 2.4373 17.9817 2.53953 18.1861 2.74399C18.3906 2.94845 18.4928 3.20062 18.4928 3.50049V6.19938L21.846 8.81648C21.8732 8.84374 21.8937 8.86419 21.9073 8.87782C21.9209 8.89145 21.9278 8.90508 21.9278 8.91871C21.9278 8.93234 21.9346 8.95278 21.9482 8.98005C21.9618 9.00731 21.9686 9.03457 21.9686 9.06183ZM11.2958 1.82391L10.4779 2.4373H12.5225L11.7047 1.82391C11.5684 1.71487 11.4321 1.71487 11.2958 1.82391ZM21.2735 20.757L13.0005 16.5L13.5005 15.5C13.3097 15.6363 13.1368 15.6772 13.0005 15.5C12.8642 15.3228 14.9352 13.6554 15.0988 13.5191L20.9463 8.98005L18.4928 7.05811V11.5C18.4928 11.7454 18.3769 11.868 18.1452 11.868C17.9135 11.868 17.7976 11.7454 17.7976 11.5V3.50049C17.7976 3.25514 17.675 3.13246 17.4296 3.13246H5.57087C5.32552 3.13246 5.20284 3.25514 5.20284 3.50049V11.632C5.20284 11.8773 5.08698 12 4.85526 12C4.62354 12 4.50768 11.8773 4.50768 11.632V7.05811L2.05415 8.98005L7.86084 13.4782C8.05167 13.6418 10.0584 15.0107 9.50049 15C9.36418 15.1772 9.19132 15.6363 9.00049 15.5L8.50049 16L2.09504 20.9206L10.846 13.6418C11.2822 13.3146 11.7183 13.3146 12.1545 13.6418L21.2735 20.757ZM8.02441 5.58599C7.77905 5.58599 7.65638 5.47013 7.65638 5.23841C7.65638 5.00669 7.77905 4.89083 8.02441 4.89083H14.9761C15.2214 4.89083 15.3441 5.00669 15.3441 5.23841C15.3441 5.47013 15.2214 5.58599 14.9761 5.58599H8.02441ZM14.9761 6.97633C15.2214 6.97633 15.3441 7.09219 15.3441 7.32391C15.3441 7.55564 15.2214 7.6715 14.9761 7.6715H8.02441C7.77905 7.6715 7.65638 7.55564 7.65638 7.32391C7.65638 7.09219 7.77905 6.97633 8.02441 6.97633H14.9761ZM14.9761 9.06183C15.2214 9.06183 15.3441 9.17769 15.3441 9.40941C15.3441 9.64114 15.2214 9.757 14.9761 9.757H11.8683C11.6229 9.757 11.5002 9.64114 11.5002 9.40941C11.5002 9.17769 11.6229 9.06183 11.8683 9.06183H14.9761Z" fill="#844DB4"/>
</svg>
