<svg width="23" height="23" viewBox="0 0 23 23" fill="none" xmlns="http://www.w3.org/2000/svg">
<path d="M21.9686 9.06147V20.9202C21.9686 21.0565 21.955 21.1656 21.9278 21.2473C21.9823 21.3836 21.9823 21.5131 21.9278 21.6358C21.8732 21.7585 21.7642 21.8198 21.6006 21.8198C21.5734 21.8198 21.5461 21.8062 21.5188 21.7789C21.3553 21.9152 21.1508 21.9834 20.9054 21.9834H2.09504C1.84968 21.9834 1.64522 21.9152 1.48166 21.7789C1.31809 21.8335 1.18859 21.7926 1.09318 21.6563C0.997764 21.52 0.990949 21.3836 1.07273 21.2473C1.07273 21.2201 1.06592 21.186 1.05229 21.1451C1.03866 21.1042 1.03184 21.0701 1.03184 21.0429C1.03184 21.0156 1.03184 20.9747 1.03184 20.9202V9.06147C1.03184 9.0342 1.03866 9.00694 1.05229 8.97968C1.06592 8.95242 1.07273 8.93197 1.07273 8.91834C1.07273 8.90471 1.07955 8.89108 1.09318 8.87745C1.10681 8.86382 1.12726 8.84337 1.15452 8.81611L4.50768 6.19901V3.50013C4.50768 3.3093 4.55539 3.1321 4.6508 2.96853C4.74622 2.80496 4.87571 2.67547 5.03928 2.58005C5.20285 2.48464 5.38004 2.43693 5.57087 2.43693H9.33296L10.846 1.25105C11.2822 0.923918 11.7183 0.923918 12.1545 1.25105L13.6675 2.43693H17.4296C17.7295 2.43693 17.9817 2.53916 18.1861 2.74362C18.3906 2.94808 18.4928 3.20025 18.4928 3.50013V6.19901L21.846 8.81611C21.8732 8.84337 21.8937 8.86382 21.9073 8.87745C21.9209 8.89108 21.9278 8.90471 21.9278 8.91834C21.9278 8.93197 21.9346 8.95242 21.9482 8.97968C21.9618 9.00694 21.9686 9.0342 21.9686 9.06147ZM11.2958 1.82355L10.4779 2.43693H12.5225L11.7047 1.82355C11.5684 1.7145 11.4321 1.7145 11.2958 1.82355ZM21.2735 20.7566L13.0005 16.4996L13.5005 15.4996C13.3097 15.6359 13.1368 15.6768 13.0005 15.4996C12.8642 15.3224 14.9352 13.655 15.0988 13.5187L20.9463 8.97968L18.4928 7.05775V11.4996C18.4928 11.745 18.3769 11.8677 18.1452 11.8677C17.9135 11.8677 17.7976 11.745 17.7976 11.4996V3.50013C17.7976 3.25477 17.675 3.1321 17.4296 3.1321H5.57087C5.32552 3.1321 5.20284 3.25477 5.20284 3.50013V11.6316C5.20284 11.877 5.08698 11.9996 4.85526 11.9996C4.62354 11.9996 4.50768 11.877 4.50768 11.6316V7.05775L2.05415 8.97968L7.86084 13.4778C8.05167 13.6414 10.0584 15.0103 9.50049 14.9996C9.36418 15.1768 9.19132 15.6359 9.00049 15.4996L8.50049 15.9996L2.09504 20.9202L10.846 13.6414C11.2822 13.3143 11.7183 13.3143 12.1545 13.6414L21.2735 20.7566ZM8.02441 5.58563C7.77905 5.58563 7.65638 5.46977 7.65638 5.23804C7.65638 5.00632 7.77905 4.89046 8.02441 4.89046H14.9761C15.2214 4.89046 15.3441 5.00632 15.3441 5.23804C15.3441 5.46977 15.2214 5.58563 14.9761 5.58563H8.02441ZM14.9761 6.97596C15.2214 6.97596 15.3441 7.09182 15.3441 7.32355C15.3441 7.55527 15.2214 7.67113 14.9761 7.67113H8.02441C7.77905 7.67113 7.65638 7.55527 7.65638 7.32355C7.65638 7.09182 7.77905 6.97596 8.02441 6.97596H14.9761ZM14.9761 9.06147C15.2214 9.06147 15.3441 9.17733 15.3441 9.40905C15.3441 9.64077 15.2214 9.75663 14.9761 9.75663H11.8683C11.6229 9.75663 11.5002 9.64077 11.5002 9.40905C11.5002 9.17733 11.6229 9.06147 11.8683 9.06147H14.9761Z" fill="#7A60FF"/>
</svg>
