<svg width="40" height="41" viewBox="0 0 40 41" fill="none" xmlns="http://www.w3.org/2000/svg">
<g clip-path="url(#clip0_198_4367)">
<path d="M22 15.834C22 14.7294 21.1046 13.834 20 13.834C18.8954 13.834 18 14.7294 18 15.834V17.1673H22V15.834Z" fill="#844DB4"/>
<path d="M23.3333 18.5H16.6667C16.2985 18.5 16 18.7985 16 19.1667V25.1667C16 25.5349 16.2985 25.8333 16.6667 25.8333H23.3333C23.7015 25.8333 24 25.5349 24 25.1667V19.1667C24 18.7985 23.7015 18.5 23.3333 18.5ZM20.6667 23.7133V23.8333C20.6667 24.2015 20.3682 24.5 20 24.5C19.6318 24.5 19.3333 24.2015 19.3333 23.8333V23.7133C18.415 23.3886 17.8641 22.4496 18.0288 21.4895C18.1935 20.5295 19.0259 19.8277 20 19.8277C20.9741 19.8277 21.8065 20.5295 21.9712 21.4895C22.1359 22.4496 21.585 23.3886 20.6667 23.7133Z" fill="#844DB4"/>
<path d="M20 10.5C14.4772 10.5 10 14.9772 10 20.5C10 26.0228 14.4772 30.5 20 30.5C25.5228 30.5 30 26.0228 30 20.5C29.9934 14.9799 25.5201 10.5066 20 10.5ZM25.3333 25.1667C25.33 26.2699 24.4365 27.1634 23.3333 27.1667H16.6667C15.5635 27.1634 14.67 26.2699 14.6667 25.1667V19.1667C14.67 18.0635 15.5635 17.17 16.6667 17.1667V15.8333C16.6667 13.9924 18.1591 12.5 20 12.5C21.8409 12.5 23.3333 13.9924 23.3333 15.8333V17.1667C24.4365 17.17 25.33 18.0635 25.3333 19.1667V25.1667Z" fill="#844DB4"/>
<path d="M20 22.4993C20.3682 22.4993 20.6666 22.2009 20.6666 21.8327C20.6666 21.4645 20.3682 21.166 20 21.166C19.6318 21.166 19.3333 21.4645 19.3333 21.8327C19.3333 22.2009 19.6318 22.4993 20 22.4993Z" fill="#844DB4"/>
<path d="M6.66669 4.50081C7.14091 4.49938 7.57842 4.24531 7.81469 3.83414H14V8.28214C14 8.30881 14.0127 8.33481 14.016 8.36147C14.023 8.43049 14.0408 8.49797 14.0687 8.56147C14.0964 8.62089 14.1333 8.67556 14.178 8.72347C14.2004 8.74766 14.2247 8.76996 14.2507 8.79014C14.2833 8.81686 14.3184 8.84052 14.3554 8.86081C14.3862 8.87789 14.4183 8.89259 14.4514 8.90481C14.499 8.91994 14.5482 8.92977 14.598 8.93414C14.6199 8.94013 14.6422 8.94481 14.6647 8.94814C14.7602 8.94613 14.8542 8.92338 14.94 8.88147C15.7522 8.52933 16.599 8.26342 17.4667 8.08814C17.8277 8.0145 18.0607 7.66215 17.987 7.30114C17.9134 6.94013 17.561 6.70717 17.2 6.78081C16.5664 6.91044 15.9427 7.0842 15.3334 7.30081V3.83414C15.3334 3.09776 14.7364 2.50081 14 2.50081H7.81469C7.49074 1.93972 6.81032 1.69272 6.20187 1.91534C5.59342 2.13795 5.23306 2.76574 5.34771 3.40342C5.46235 4.04109 6.0188 4.50406 6.66669 4.50081Z" fill="#844DB4"/>
<path d="M33.3334 36.5003C32.8591 36.5017 32.4216 36.7558 32.1854 37.167H26V33.137C27.4906 32.4353 28.8449 31.4749 30 30.3003C30.1708 30.131 30.2372 29.8829 30.1737 29.651C30.1103 29.4191 29.9269 29.2392 29.6938 29.1804C29.4606 29.1216 29.2139 29.1929 29.048 29.367C27.9161 30.5242 26.5724 31.4533 25.09 32.1036C25.0005 32.1392 24.9199 32.194 24.854 32.2643C24.8467 32.2723 24.8427 32.283 24.8354 32.2923C24.7866 32.3465 24.7472 32.4085 24.7187 32.4756C24.7056 32.5175 24.6969 32.5606 24.6927 32.6043C24.6803 32.642 24.6716 32.6809 24.6667 32.7203V32.7323V37.167C24.6667 37.9034 25.2636 38.5003 26 38.5003H32.1854C32.5093 39.0614 33.1897 39.3084 33.7982 39.0858C34.4066 38.8632 34.767 38.2354 34.6523 37.5977C34.5377 36.96 33.9812 36.4971 33.3334 36.5003Z" fill="#844DB4"/>
<path d="M2.66669 15.166C3.14091 15.1646 3.57842 14.9105 3.81469 14.4994H8.46003H8.47803C8.54381 14.4956 8.6087 14.4824 8.67069 14.46C8.69998 14.4507 8.72851 14.4391 8.75603 14.4254C8.79156 14.4066 8.82507 14.3843 8.85603 14.3587C8.91226 14.3162 8.96094 14.2646 9.00003 14.206C9.00869 14.1934 9.02003 14.184 9.02803 14.1707C9.88286 12.6873 11.03 11.3929 12.4 10.366C12.5906 10.2231 12.6904 9.98941 12.6619 9.75294C12.6334 9.51648 12.4809 9.31317 12.2619 9.21961C12.0429 9.12605 11.7906 9.15645 11.6 9.29935C10.197 10.3562 9.00581 11.668 8.08869 13.166H3.81469C3.49074 12.6049 2.81032 12.3579 2.20187 12.5806C1.59342 12.8032 1.23306 13.431 1.34771 14.0686C1.46235 14.7063 2.0188 15.1693 2.66669 15.166Z" fill="#844DB4"/>
<path d="M37.3334 25.8339C36.8591 25.8354 36.4216 26.0894 36.1854 26.5006H32.652C33.1366 25.4814 33.4948 24.4067 33.7187 23.3006C33.7923 22.9396 33.5594 22.5872 33.1984 22.5136C32.8373 22.44 32.485 22.6729 32.4114 23.0339C32.1409 24.3704 31.6545 25.6539 30.9714 26.8339V26.8426C30.9315 26.9131 30.9053 26.9904 30.894 27.0706C30.894 27.0779 30.894 27.0846 30.8894 27.0919C30.8827 27.1167 30.8774 27.1419 30.8734 27.1673C30.8774 27.2196 30.8877 27.2713 30.904 27.3213C30.904 27.3299 30.904 27.3386 30.9094 27.3473C30.9301 27.4191 30.9632 27.4868 31.0074 27.5473C31.014 27.5573 31.0194 27.5673 31.0267 27.5766C31.0718 27.6322 31.1259 27.68 31.1867 27.7179C31.1974 27.7253 31.204 27.7366 31.2154 27.7433C31.2267 27.7499 31.2314 27.7493 31.2387 27.7533C31.2683 27.7684 31.299 27.7811 31.3307 27.7913C31.3926 27.8136 31.4576 27.8266 31.5234 27.8299C31.5294 27.8299 31.534 27.8333 31.54 27.8333H36.1854C36.5091 28.3947 37.1895 28.642 37.7982 28.4195C38.4069 28.197 38.7674 27.5691 38.6527 26.9313C38.5381 26.2935 37.9814 25.8305 37.3334 25.8339Z" fill="#844DB4"/>
<path d="M24.6667 8.26877V8.28077C24.6707 8.3201 24.6785 8.35894 24.69 8.39677C24.6942 8.44044 24.703 8.48356 24.716 8.52544C24.7445 8.59258 24.7839 8.65453 24.8327 8.70877C24.84 8.71744 24.844 8.72877 24.8514 8.73677C24.9172 8.80704 24.9978 8.8619 25.0874 8.89744C26.5695 9.54682 27.9131 10.4747 29.0454 11.6308C29.2097 11.8095 29.4581 11.8848 29.694 11.8273C29.9299 11.7698 30.1159 11.5886 30.1795 11.3544C30.2431 11.1201 30.1744 10.8697 30 10.7008C28.8449 9.52618 27.4906 8.56575 26 7.86411V3.83411H32.1854C32.4871 4.35673 33.1022 4.61153 33.6851 4.45534C34.2681 4.29915 34.6734 3.77091 34.6734 3.16744C34.6734 2.56396 34.2681 2.03573 33.6851 1.87954C33.1022 1.72335 32.4871 1.97815 32.1854 2.50077H26C25.2636 2.50077 24.6667 3.09773 24.6667 3.83411V8.26811V8.26877Z" fill="#844DB4"/>
<path d="M15.3334 32.732V32.7206C15.3291 32.6832 15.3218 32.6462 15.3114 32.61C15.3066 32.5647 15.2975 32.5201 15.284 32.4766C15.256 32.4105 15.2172 32.3495 15.1694 32.296C15.1607 32.286 15.1567 32.274 15.148 32.2646C15.0819 32.1944 15.0011 32.1395 14.9114 32.104C13.1663 31.3338 11.6159 30.1825 10.374 28.7346C10.2213 28.5466 9.97856 28.4562 9.74002 28.4986C9.50149 28.5409 9.30471 28.7093 9.22603 28.9384C9.14735 29.1676 9.19916 29.4214 9.36136 29.6013C10.6434 31.0936 12.2235 32.3013 14 33.1466V37.1673H7.81469C7.51296 36.6447 6.89781 36.3899 6.3149 36.5461C5.73199 36.7023 5.32666 37.2305 5.32666 37.834C5.32666 38.4374 5.73199 38.9657 6.3149 39.1219C6.89781 39.2781 7.51296 39.0233 7.81469 38.5006H14C14.7364 38.5006 15.3334 37.9037 15.3334 37.1673V32.732Z" fill="#844DB4"/>
<path d="M22.5333 32.9134C20.8612 33.2492 19.1389 33.2492 17.4667 32.9134C17.2308 32.8593 16.9841 32.9372 16.8222 33.1171C16.6603 33.2969 16.6085 33.5504 16.687 33.7793C16.7654 34.0083 16.9618 34.1767 17.2 34.2194C17.9038 34.3561 18.617 34.4388 19.3333 34.4667V39.8334C19.3333 40.2016 19.6318 40.5 20 40.5C20.3682 40.5 20.6667 40.2016 20.6667 39.8334V34.4667C21.3831 34.4389 22.0963 34.3562 22.8 34.2194C23.1528 34.1385 23.3765 33.7908 23.3041 33.4362C23.2317 33.0816 22.8896 32.8495 22.5333 32.9134Z" fill="#844DB4"/>
<path d="M20 7.83333C20.8508 7.83316 21.6994 7.91802 22.5333 8.08667C22.5772 8.09569 22.6219 8.10016 22.6666 8.1C23.0079 8.0987 23.2931 7.8399 23.3274 7.50037C23.3617 7.16084 23.1341 6.85022 22.8 6.78067C22.0962 6.64388 21.383 6.5612 20.6666 6.53333V1.16667C20.6666 0.798477 20.3682 0.5 20 0.5C19.6318 0.5 19.3333 0.798477 19.3333 1.16667V7.16667C19.3333 7.53486 19.6318 7.83333 20 7.83333Z" fill="#844DB4"/>
<path d="M8.46002 27.8343C8.46535 27.8343 8.47002 27.8309 8.47602 27.8309C8.54233 27.828 8.60778 27.8147 8.67002 27.7916C8.70112 27.7814 8.73142 27.7689 8.76068 27.7543C8.76802 27.7503 8.77668 27.7489 8.78402 27.7443C8.79135 27.7396 8.80268 27.7256 8.81335 27.7183C8.87383 27.681 8.92748 27.6336 8.97202 27.5783C8.97988 27.568 8.98723 27.5573 8.99402 27.5463C9.03717 27.4856 9.06964 27.4179 9.09002 27.3463C9.09002 27.3363 9.09402 27.3263 9.09602 27.3163C9.11214 27.2681 9.12244 27.2182 9.12668 27.1676C9.12324 27.1424 9.11812 27.1175 9.11135 27.0929C9.11135 27.0843 9.11135 27.0763 9.10668 27.0669C9.09537 26.9887 9.06984 26.9133 9.03135 26.8443L9.02802 26.8336C8.34442 25.6536 7.8576 24.3701 7.58668 23.0336C7.51305 22.6728 7.16084 22.44 6.80002 22.5136C6.43919 22.5872 6.20638 22.9394 6.28002 23.3003C6.50432 24.4063 6.86251 25.4809 7.34668 26.5003H3.81335C3.51161 25.9776 2.89647 25.7228 2.31356 25.879C1.73065 26.0352 1.32532 26.5635 1.32532 27.1669C1.32532 27.7704 1.73065 28.2986 2.31356 28.4548C2.89647 28.611 3.51161 28.3562 3.81335 27.8336L8.46002 27.8343Z" fill="#844DB4"/>
<path d="M39.3334 19.8335H33.978C33.8906 17.985 33.4374 16.1722 32.6447 14.5001H36.184C36.4858 15.0227 37.1009 15.2775 37.6838 15.1214C38.2667 14.9652 38.6721 14.4369 38.6721 13.8335C38.6721 13.23 38.2667 12.7017 37.6838 12.5456C37.1009 12.3894 36.4858 12.6442 36.184 13.1668H31.54C31.5274 13.1668 31.5174 13.1735 31.5054 13.1735C31.4667 13.1776 31.4285 13.1854 31.3914 13.1968C31.3366 13.2076 31.2835 13.2255 31.2334 13.2501C31.228 13.2501 31.2214 13.2501 31.2154 13.2568C31.2094 13.2635 31.198 13.2748 31.1867 13.2821C31.1259 13.3201 31.0718 13.3678 31.0267 13.4235C31.0194 13.4328 31.014 13.4428 31.0074 13.4528C30.9632 13.5132 30.9301 13.5809 30.9094 13.6528C30.9094 13.6615 30.9094 13.6701 30.904 13.6788C30.8876 13.7289 30.8773 13.7809 30.8734 13.8335C30.8769 13.859 30.8818 13.8844 30.888 13.9095C30.888 13.9168 30.8914 13.9235 30.8927 13.9308C30.9039 14.011 30.9302 14.0883 30.97 14.1588V14.1675C32.0819 16.0927 32.667 18.2769 32.6667 20.5001C32.6667 20.8683 32.9652 21.1668 33.3334 21.1668H39.3334C39.7015 21.1668 40 20.8683 40 20.5001C40 20.1319 39.7015 19.8335 39.3334 19.8335Z" fill="#844DB4"/>
<path d="M7.33333 20.5006C7.33192 19.1535 7.5455 17.8149 7.966 16.5352C8.04043 16.309 7.98849 16.0602 7.82976 15.8826C7.67102 15.705 7.42959 15.6256 7.19642 15.6742C6.96325 15.7229 6.77376 15.8923 6.69933 16.1186C6.30769 17.3208 6.08118 18.5707 6.026 19.8339H0.666667C0.298477 19.8339 0 20.1324 0 20.5006C0 20.8687 0.298477 21.1672 0.666667 21.1672H6.66667C7.03486 21.1672 7.33333 20.8687 7.33333 20.5006Z" fill="#844DB4"/>
</g>
<defs>
<clipPath id="clip0_198_4367">
<rect width="40" height="40" fill="white" transform="translate(0 0.5)"/>
</clipPath>
</defs>
</svg>
