<svg width="49" height="49" viewBox="0 0 49 49" fill="none" xmlns="http://www.w3.org/2000/svg">
<g clip-path="url(#clip0_275_3438)">
<path d="M15.1449 4.82419H21.9241C22.4429 4.82419 22.8636 4.40353 22.8636 3.88475C22.8636 3.36598 22.4429 2.94531 21.9241 2.94531H15.1449C14.6261 2.94531 14.2058 3.36598 14.2058 3.88475C14.2058 4.40353 14.6265 4.82419 15.1449 4.82419Z" fill="#844DB4"/>
<path d="M18.5347 37.7578C16.77 37.7578 15.3345 39.1934 15.3345 40.9581C15.3345 42.7228 16.77 44.1583 18.5347 44.1583C20.2991 44.1583 21.7347 42.7228 21.7347 40.9581C21.7347 39.1934 20.2991 37.7578 18.5347 37.7578ZM18.5347 42.2798C17.806 42.2798 17.213 41.6869 17.213 40.9581C17.213 40.2293 17.806 39.6364 18.5347 39.6364C19.2635 39.6364 19.8561 40.2293 19.8561 40.9581C19.8561 41.6869 19.2635 42.2798 18.5347 42.2798Z" fill="#844DB4"/>
<path d="M34.7772 11.1289C34.1348 11.1289 33.5087 11.1959 32.8987 11.3094V0.403955C32.8987 -0.11482 32.478 -0.535156 31.9596 -0.535156H5.1096C4.59082 -0.535156 4.17017 -0.114492 4.17017 0.403955V46.5254C4.17017 47.0442 4.59082 47.4648 5.1096 47.4648H31.9596C32.4784 47.4648 32.8987 47.0442 32.8987 46.5254V31.4478C39.2635 32.633 45.0268 27.7251 45.0268 21.3784C45.0271 15.7267 40.429 11.1289 34.7772 11.1289ZM31.0202 1.34339V6.4268H6.04871V1.34339H31.0202ZM6.04904 45.5863V36.33H31.0205V45.5863H6.04904ZM31.0202 34.4515H6.04871V8.30568H31.0202V11.8518C27.2237 13.3546 24.5277 17.054 24.5277 21.3784C24.5277 25.7032 27.2237 29.4025 31.0202 30.9051V34.4515ZM34.7772 29.7494C30.1614 29.7494 26.4063 25.9939 26.4063 21.3784C26.4063 16.7626 30.1618 13.0075 34.7772 13.0075C39.3931 13.0075 43.1482 16.7629 43.1482 21.3784C43.1485 25.9942 39.3931 29.7494 34.7772 29.7494Z" fill="#844DB4"/>
<path d="M37.9404 21.3635C37.5496 21.1118 37.1115 20.91 36.6374 20.7637C36.2859 20.6557 35.9345 20.5563 35.5824 20.4664V17.4131C36.2029 17.4571 36.7653 17.5647 37.2523 17.7324C37.5213 17.8361 37.7415 17.8863 37.9256 17.8863C38.1018 17.8863 38.3617 17.8249 38.5953 17.5339C38.7643 17.3265 38.85 17.0932 38.85 16.8422C38.85 16.3569 38.5999 15.9998 38.151 15.8394C37.3999 15.5572 36.537 15.3797 35.5824 15.3121V14.4635C35.5824 14.2535 35.5076 14.0668 35.3626 13.9208C35.0699 13.6334 34.5541 13.6389 34.2811 13.9346C34.1508 14.077 34.0819 14.2601 34.0819 14.4632V15.3367C32.9922 15.4545 32.1026 15.825 31.4325 16.4425C31.0769 16.7746 30.8048 17.1588 30.625 17.5844C30.4462 18.007 30.3556 18.4881 30.3556 19.0144C30.3556 19.5637 30.4882 20.051 30.75 20.4624C31.0007 20.8565 31.3699 21.2162 31.8496 21.5321C32.285 21.8179 33.0174 22.1008 34.0819 22.3928V25.3093C33.2442 25.2502 32.5196 25.0874 31.9247 24.824C31.3272 24.5565 30.8672 24.5897 30.521 24.9657C30.3376 25.1672 30.2444 25.4349 30.2444 25.7618C30.2444 26.0325 30.3612 26.4085 30.9279 26.6713C31.9215 27.0946 32.9803 27.3529 34.0819 27.4405V28.3074C34.0819 28.7582 34.3733 29.05 34.8248 29.05C35.0285 29.05 35.211 28.9814 35.3524 28.8511C35.503 28.713 35.5824 28.5253 35.5824 28.3074V27.4329C36.6282 27.3187 37.4925 26.9785 38.155 26.4193C38.9215 25.7726 39.31 24.9509 39.31 23.9774C39.31 22.8499 38.8509 21.9718 37.9404 21.3635ZM32.5699 18.8244C32.5699 18.4238 32.7231 18.1311 33.0519 17.9027C33.3318 17.7074 33.677 17.5686 34.0819 17.4873V20.0933C33.9506 20.0559 33.823 20.0165 33.6993 19.9748C32.6867 19.6296 32.5699 19.1529 32.5699 18.8244ZM37.0954 23.9393C37.0954 24.1467 37.0534 24.3281 36.9678 24.4912C36.7499 24.8981 36.285 25.159 35.5824 25.2689V22.784C36.0543 22.9254 36.3962 23.0612 36.6052 23.1908C36.7706 23.2896 36.9002 23.4018 36.9901 23.5223C37.06 23.6171 37.0954 23.7575 37.0954 23.9393Z" fill="#844DB4"/>
</g>
<defs>
<clipPath id="clip0_275_3438">
<rect width="48" height="48" fill="white" transform="translate(0.170166 0.322266)"/>
</clipPath>
</defs>
</svg>
