<svg width="49" height="49" viewBox="0 0 49 49" fill="none" xmlns="http://www.w3.org/2000/svg">
<g clip-path="url(#clip0_275_3176)">
<path d="M12.1274 43.4722C14.0678 43.4722 15.6508 41.9913 15.6508 40.153V15.8465C15.6508 14.0082 14.0678 12.5273 12.1274 12.5273H5.69333C3.7529 12.5273 2.16992 14.0082 2.16992 15.8465V40.153C2.16992 41.9913 3.7529 43.4722 5.69333 43.4722H12.1274ZM3.90609 40.153V15.8465C3.90609 14.9784 4.72311 14.3146 5.69333 14.3146H12.1274C13.0976 14.3146 13.9146 15.0295 13.9146 15.8465V40.153C13.9146 41.0211 13.0976 41.6849 12.1274 41.6849H5.69333C4.72311 41.6849 3.90609 40.97 3.90609 40.153Z" fill="#844DB4"/>
<path d="M35.5146 0.322266C33.5742 0.322266 31.9912 2.2627 31.9912 4.66271V39.182C31.9912 41.582 33.5742 43.5224 35.5146 43.5224H41.9487C43.8891 43.5224 45.4721 41.582 45.4721 39.182V4.66271C45.4721 2.2627 43.8891 0.322266 41.9487 0.322266H35.5146ZM43.7359 4.66271V39.182C43.7359 40.5607 42.9189 41.7352 41.9487 41.7352H35.5146C34.5444 41.7352 33.7274 40.5607 33.7274 39.182V4.66271C33.7274 3.28398 34.5444 2.10951 35.5146 2.10951H41.9487C42.9189 2.10951 43.7359 3.28398 43.7359 4.66271Z" fill="#844DB4"/>
<path d="M20.3996 43.472H26.8337C28.8252 43.472 30.3571 42.3996 30.3571 40.9698V24.9357C30.3571 23.557 28.8252 22.4336 26.8337 22.4336H20.3996C18.4081 22.4336 16.8762 23.506 16.8762 24.9357V40.9698C16.8762 42.3486 18.4081 43.472 20.3996 43.472ZM18.6124 24.9357C18.6124 24.7315 19.2762 24.2208 20.3996 24.2208H26.8337C27.9571 24.2208 28.6209 24.7315 28.6209 24.9357V40.9698C28.6209 41.1741 27.9571 41.6848 26.8337 41.6848H20.3996C19.2762 41.6848 18.6124 41.1741 18.6124 40.9698V24.9357Z" fill="#844DB4"/>
<path d="M3.7019 46.6887C3.7019 47.5568 4.51893 48.3228 5.48914 48.3228H42.8679C43.8381 48.3228 44.6551 47.6079 44.6551 46.6887C44.6551 45.7696 43.8381 45.0547 42.8679 45.0547H5.48914C4.51893 45.0547 3.7019 45.7696 3.7019 46.6887Z" fill="#844DB4"/>
</g>
<defs>
<clipPath id="clip0_275_3176">
<rect width="48" height="48" fill="white" transform="translate(0.169922 0.322266)"/>
</clipPath>
</defs>
</svg>
