<svg width="49" height="49" viewBox="0 0 49 49" fill="none" xmlns="http://www.w3.org/2000/svg">
<g clip-path="url(#clip0_275_3464)">
<path d="M48.1077 23.4828C47.9823 23.1797 47.6863 22.9814 47.3582 22.9814L45.4978 22.9806C44.2929 11.7042 35.361 8.26251 29.0066 8.77071C28.6147 8.80332 28.3019 9.11243 28.2653 9.50407C28.2285 9.89599 28.4783 10.2576 28.8575 10.3622C35.8618 12.2949 38.2539 17.9735 37.5837 22.9766L35.6741 22.9755H35.6738C35.3457 22.9755 35.0499 23.1728 34.9237 23.476C34.7981 23.7792 34.8675 24.1285 35.0992 24.3608L40.9383 30.2062C41.0906 30.3587 41.297 30.4444 41.5123 30.4444H41.5126C41.7278 30.4444 41.934 30.3587 42.086 30.207L47.931 24.3676C48.1636 24.1353 48.2333 23.7865 48.1077 23.4828ZM41.5131 28.4848L37.6334 24.6002L38.274 24.6004H38.2743C38.6639 24.6004 38.9988 24.3234 39.0717 23.9405C39.9219 19.4717 38.5043 14.096 33.8597 10.886C39.6494 12.3397 43.3913 16.547 43.9475 23.8532C43.9795 24.2766 44.3323 24.6036 44.7565 24.6036L45.3974 24.6038L41.5131 28.4848Z" fill="#844DB4"/>
<path d="M19.4818 37.2108C12.4769 35.2784 10.0848 29.5998 10.7555 24.5967L12.6652 24.5976C12.9933 24.5976 13.2896 24.3999 13.4155 24.097C13.5412 23.7933 13.4717 23.4445 13.24 23.2122L7.40062 17.3671C7.08357 17.0492 6.56915 17.0501 6.25267 17.3663L0.407628 23.2054C0.17537 23.4377 0.105611 23.7865 0.230957 24.0902C0.356587 24.3934 0.652366 24.5913 0.981044 24.5916L2.84138 24.5927C3.85067 34.0377 10.3922 38.8293 18.5059 38.8293C18.9835 38.8293 19.2796 38.8066 19.3332 38.8023C19.7251 38.7697 20.0379 38.4606 20.0745 38.069C20.1108 37.677 19.8612 37.3155 19.4818 37.2108ZM4.39119 23.7201C4.35914 23.2967 4.00664 22.97 3.58211 22.9697L2.94121 22.9695L6.8258 19.0888L10.7064 22.9734L10.0655 22.9731C9.67585 22.9731 9.34065 23.2502 9.26777 23.6331C8.41672 28.105 9.83665 33.485 14.4889 36.6938C8.06338 35.0833 4.89229 30.2983 4.39119 23.7201Z" fill="#844DB4"/>
<path d="M24.3991 14.8164C19.0449 14.8164 14.6887 19.1726 14.6887 24.5268C14.6887 29.8816 19.0449 34.2378 24.3991 34.2378C29.7538 34.2378 34.11 29.8816 34.11 24.5268C34.11 19.1726 29.7538 14.8164 24.3991 14.8164ZM24.3991 32.6143C19.9399 32.6143 16.3123 28.9863 16.3123 24.5268C16.3123 20.0677 19.9399 16.44 24.3991 16.44C28.8582 16.44 32.4864 20.0677 32.4864 24.5268C32.4864 28.986 28.8582 32.6143 24.3991 32.6143Z" fill="#844DB4"/>
<path d="M27.1154 24.5151C26.7796 24.299 26.4036 24.1257 25.9963 23.9998C25.6946 23.907 25.3926 23.8217 25.0903 23.7445V21.1225C25.6231 21.1602 26.1064 21.2526 26.5244 21.3967C26.7555 21.4854 26.9446 21.5286 27.1026 21.5286C27.254 21.5286 27.4769 21.4758 27.6777 21.2257C27.8229 21.0476 27.8964 20.8474 27.8964 20.6316C27.8964 20.215 27.6817 19.9081 27.2963 19.7706C26.6511 19.5281 25.9101 19.3758 25.0905 19.3177V18.5891C25.0905 18.4088 25.0262 18.2486 24.9017 18.1232C24.6504 17.8765 24.2075 17.8813 23.9729 18.1351C23.8612 18.2573 23.8016 18.4145 23.8016 18.5891V19.3392C22.8658 19.4405 22.1018 19.7587 21.5264 20.2887C21.221 20.5737 20.9873 20.9038 20.833 21.2694C20.6793 21.6324 20.6016 22.0455 20.6016 22.4976C20.6016 22.9692 20.7156 23.3878 20.9405 23.7411C21.1558 24.0795 21.4728 24.3883 21.8849 24.66C22.2589 24.9056 22.8876 25.1483 23.8019 25.3993V27.9037C23.0825 27.8532 22.4603 27.7131 21.9495 27.4871C21.4365 27.2574 21.0412 27.286 20.744 27.609C20.5866 27.782 20.5063 28.012 20.5063 28.2928C20.5063 28.525 20.6067 28.848 21.0934 29.0738C21.9467 29.4373 22.8562 29.6588 23.8019 29.7342V30.4787C23.8019 30.8658 24.0523 31.1162 24.44 31.1162C24.6153 31.1162 24.7718 31.0572 24.8932 30.9455C25.0225 30.8266 25.0908 30.6656 25.0908 30.4787V29.7277C25.9889 29.6296 26.7311 29.3375 27.3 28.8574C27.9582 28.3021 28.2917 27.5963 28.2917 26.7602C28.2917 25.7915 27.8972 25.0374 27.1154 24.5151ZM23.8016 23.4238C23.6891 23.3917 23.5793 23.3577 23.473 23.3223C22.6035 23.0262 22.5031 22.6164 22.5031 22.3345C22.5031 21.9905 22.6347 21.7393 22.9171 21.543C23.1573 21.3754 23.454 21.256 23.8016 21.1863V23.4238ZM26.2802 27.2009C26.0933 27.5503 25.6937 27.7744 25.0905 27.8688V25.7348C25.4958 25.8562 25.7893 25.9727 25.9688 26.0842C26.1109 26.169 26.2223 26.2654 26.2992 26.3689C26.3593 26.4503 26.3899 26.5708 26.3899 26.7271C26.3899 26.9051 26.3539 27.0611 26.2802 27.2009Z" fill="#844DB4"/>
</g>
<defs>
<clipPath id="clip0_275_3464">
<rect width="48" height="48" fill="white" transform="translate(0.169434 0.322266)"/>
</clipPath>
</defs>
</svg>
