<svg width="49" height="49" viewBox="0 0 49 49" fill="none" xmlns="http://www.w3.org/2000/svg">
<g clip-path="url(#clip0_372_2543)">
<path d="M48.4383 23.5951C48.3129 23.292 48.0169 23.0937 47.6887 23.0937L45.8284 23.0929C44.6234 11.8165 35.6915 8.37482 29.3372 8.88301C28.9453 8.91562 28.6325 9.22474 28.5959 9.61638C28.559 10.0083 28.8089 10.3699 29.188 10.4745C36.1924 12.4072 38.5844 18.0858 37.9143 23.0889L36.0046 23.0878H36.0043C35.6762 23.0878 35.3804 23.2852 35.2542 23.5883C35.1286 23.8915 35.1981 24.2409 35.4298 24.4731L41.2689 30.3185C41.4212 30.471 41.6276 30.5567 41.8429 30.5567H41.8431C42.0584 30.5567 42.2645 30.471 42.4166 30.3193L48.2616 24.4799C48.4941 24.2477 48.5639 23.8988 48.4383 23.5951ZM41.8437 28.5971L37.9639 24.7125L38.6046 24.7127H38.6048C38.9945 24.7127 39.3294 24.4357 39.4023 24.0528C40.2525 19.584 38.8348 14.2083 34.1902 10.9983C39.98 12.452 43.7219 16.6593 44.278 23.9655C44.3101 24.3889 44.6629 24.7159 45.0871 24.7159L45.728 24.7161L41.8437 28.5971Z" fill="#7A60FF"/>
<path d="M19.8123 37.3231C12.8074 35.3907 10.4154 29.7121 11.086 24.709L12.9957 24.7099C13.3238 24.7099 13.6202 24.5122 13.7461 24.2093C13.8717 23.9056 13.8022 23.5568 13.5706 23.3245L7.73119 17.4794C7.41414 17.1615 6.89972 17.1624 6.58323 17.4786L0.738195 23.3177C0.505936 23.55 0.436178 23.8988 0.561524 24.2025C0.687153 24.5057 0.982932 24.7036 1.31161 24.7039L3.17195 24.705C4.18124 34.15 10.7228 38.9416 18.8365 38.9416C19.3141 38.9416 19.6101 38.9189 19.6637 38.9146C20.0556 38.882 20.3684 38.5729 20.405 38.1813C20.4413 37.7893 20.1918 37.4278 19.8123 37.3231ZM4.72175 23.8324C4.68971 23.409 4.33721 23.0823 3.91268 23.0821L3.27178 23.0818L7.15636 19.2011L11.037 23.0857L10.3961 23.0854C10.0064 23.0854 9.67122 23.3625 9.59834 23.7454C8.74729 28.2173 10.1672 33.5973 14.8195 36.8061C8.39394 35.1956 5.22285 30.4106 4.72175 23.8324Z" fill="#7A60FF"/>
<path d="M24.7294 14.9287C19.3752 14.9287 15.019 19.285 15.019 24.6391C15.019 29.9939 19.3752 34.3501 24.7294 34.3501C30.0841 34.3501 34.4403 29.9939 34.4403 24.6391C34.4403 19.285 30.0841 14.9287 24.7294 14.9287ZM24.7294 32.7266C20.2702 32.7266 16.6426 29.0986 16.6426 24.6391C16.6426 20.18 20.2702 16.5523 24.7294 16.5523C29.1885 16.5523 32.8167 20.18 32.8167 24.6391C32.8167 29.0983 29.1885 32.7266 24.7294 32.7266Z" fill="#7A60FF"/>
<path d="M27.4459 24.6274C27.1102 24.4113 26.7341 24.238 26.3269 24.1121C26.0251 24.0193 25.7231 23.934 25.4208 23.8568V21.2348C25.9537 21.2725 26.4369 21.3649 26.8549 21.509C27.0861 21.5977 27.2752 21.6409 27.4332 21.6409C27.5846 21.6409 27.8075 21.5881 28.0083 21.338C28.1535 21.1599 28.2269 20.9597 28.2269 20.7439C28.2269 20.3273 28.0123 20.0204 27.6269 19.8829C26.9817 19.6404 26.2407 19.4881 25.4211 19.43V18.7015C25.4211 18.5211 25.3567 18.3609 25.2322 18.2355C24.981 17.9888 24.538 17.9936 24.3035 18.2474C24.1918 18.3696 24.1322 18.5268 24.1322 18.7015V19.4516C23.1964 19.5528 22.4324 19.871 21.857 20.401C21.5516 20.686 21.3179 21.0161 21.1636 21.3817C21.0099 21.7447 20.9322 22.1578 20.9322 22.6099C20.9322 23.0815 21.0462 23.5001 21.2711 23.8534C21.4863 24.1918 21.8034 24.5006 22.2154 24.7723C22.5895 25.0179 23.2182 25.2606 24.1325 25.5116V28.016C23.413 27.9655 22.7908 27.8254 22.2801 27.5994C21.7671 27.3697 21.3718 27.3983 21.0746 27.7213C20.9172 27.8943 20.8369 28.1243 20.8369 28.4051C20.8369 28.6373 20.9373 28.9603 21.4239 29.1861C22.2773 29.5496 23.1867 29.7711 24.1325 29.8466V30.591C24.1325 30.9781 24.3829 31.2285 24.7706 31.2285C24.9458 31.2285 25.1024 31.1695 25.2237 31.0578C25.3531 30.9389 25.4214 30.7779 25.4214 30.591V29.84C26.3195 29.7419 27.0617 29.4498 27.6305 28.9697C28.2888 28.4144 28.6223 27.7086 28.6223 26.8725C28.6223 25.9038 28.2278 25.1497 27.4459 24.6274ZM24.1322 23.5361C24.0196 23.504 23.9099 23.47 23.8035 23.4346C22.934 23.1385 22.8337 22.7287 22.8337 22.4468C22.8337 22.1028 22.9652 21.8516 23.2477 21.6553C23.4879 21.4877 23.7845 21.3683 24.1322 21.2986V23.5361ZM26.6108 27.3132C26.4239 27.6626 26.0243 27.8867 25.4211 27.9811V25.8471C25.8264 25.9685 26.1199 26.085 26.2994 26.1965C26.4415 26.2813 26.5529 26.3777 26.6298 26.4812C26.6899 26.5626 26.7205 26.6831 26.7205 26.8394C26.7205 27.0175 26.6845 27.1734 26.6108 27.3132Z" fill="#7A60FF"/>
</g>
<defs>
<clipPath id="clip0_372_2543">
<rect width="48" height="48" fill="white" transform="translate(0.5 0.43457)"/>
</clipPath>
</defs>
</svg>
