<svg width="33" height="33" viewBox="0 0 33 33" fill="none" xmlns="http://www.w3.org/2000/svg">
<g clip-path="url(#clip0_297_8765)">
<path d="M23.4689 32.5H9.01352C4.17646 32.5 0.241211 28.5648 0.241211 23.7277V9.27238C0.241211 4.43525 4.17646 0.5 9.01352 0.5H23.4689C28.306 0.5 32.2412 4.43525 32.2412 9.27238V23.7277C32.2412 28.5648 28.306 32.5 23.4689 32.5Z" fill="white"/>
<path d="M16.2413 25.2765C11.4016 25.2765 7.46436 21.3392 7.46436 16.4996C7.46436 11.66 11.4017 7.72266 16.2413 7.72266C21.0809 7.72266 25.0183 11.6599 25.0183 16.4995C25.0183 21.3392 21.0809 25.2765 16.2413 25.2765ZM16.2413 9.61228C12.4437 9.61228 9.35404 12.7019 9.35404 16.4995C9.35404 20.2972 12.4437 23.3868 16.2413 23.3868C20.039 23.3868 23.1286 20.2972 23.1286 16.4996C23.1286 12.702 20.039 9.61228 16.2413 9.61228Z" fill="#7A60FF"/>
<path d="M25.5431 9.86456C24.0727 9.86456 22.8765 8.66831 22.8765 7.19794C22.8765 5.72756 24.0727 4.53125 25.5431 4.53125C27.0135 4.53125 28.2097 5.7275 28.2097 7.19788C28.2097 8.66825 27.0135 9.86456 25.5431 9.86456Z" fill="#7A60FF"/>
</g>
<defs>
<clipPath id="clip0_297_8765">
<rect width="32" height="32" fill="white" transform="translate(0.241211 0.5)"/>
</clipPath>
</defs>
</svg>
