<svg width="33" height="33" viewBox="0 0 33 33" fill="none" xmlns="http://www.w3.org/2000/svg">
<g clip-path="url(#clip0_246_11192)">
<path d="M24.028 32.2129H9.57261C4.73554 32.2129 0.800293 28.2777 0.800293 23.4406V8.98527C0.800293 4.14814 4.73554 0.212891 9.57261 0.212891H24.028C28.8651 0.212891 32.8003 4.14814 32.8003 8.98527V23.4406C32.8003 28.2777 28.8651 32.2129 24.028 32.2129Z" fill="#844DB4"/>
<path d="M16.8004 24.9894C11.9607 24.9894 8.02344 21.0521 8.02344 16.2125C8.02344 11.3729 11.9608 7.43555 16.8004 7.43555C21.64 7.43555 25.5774 11.3728 25.5774 16.2124C25.5774 21.052 21.64 24.9894 16.8004 24.9894ZM16.8004 9.32517C13.0027 9.32517 9.91313 12.4148 9.91313 16.2124C9.91313 20.01 13.0027 23.0997 16.8004 23.0997C20.5981 23.0997 23.6877 20.0101 23.6877 16.2125C23.6877 12.4149 20.5981 9.32517 16.8004 9.32517Z" fill="white"/>
<path d="M26.1022 9.57745C24.6318 9.57745 23.4355 8.3812 23.4355 6.91083C23.4355 5.44045 24.6318 4.24414 26.1022 4.24414C27.5726 4.24414 28.7688 5.44039 28.7688 6.91077C28.7688 8.38114 27.5726 9.57745 26.1022 9.57745Z" fill="white"/>
</g>
<defs>
<clipPath id="clip0_246_11192">
<rect width="32" height="32" fill="white" transform="translate(0.800293 0.212891)"/>
</clipPath>
</defs>
</svg>
