<svg width="33" height="33" viewBox="0 0 33 33" fill="none" xmlns="http://www.w3.org/2000/svg">
<g clip-path="url(#clip0_246_11459)">
<path d="M23.6386 32.3223H9.1832C4.34614 32.3223 0.410889 28.3871 0.410889 23.55V9.09464C0.410889 4.25752 4.34614 0.322266 9.1832 0.322266H23.6386C28.4757 0.322266 32.4109 4.25752 32.4109 9.09464V23.55C32.4109 28.3871 28.4757 32.3223 23.6386 32.3223Z" fill="white"/>
<path d="M16.411 25.0988C11.5713 25.0988 7.63403 21.1615 7.63403 16.3219C7.63403 11.4822 11.5713 7.54492 16.411 7.54492C21.2506 7.54492 25.188 11.4822 25.188 16.3218C25.188 21.1614 21.2506 25.0988 16.411 25.0988ZM16.411 9.43455C12.6133 9.43455 9.52372 12.5242 9.52372 16.3218C9.52372 20.1194 12.6133 23.2091 16.411 23.2091C20.2087 23.2091 23.2983 20.1195 23.2983 16.3219C23.2983 12.5242 20.2087 9.43455 16.411 9.43455Z" fill="#844DB4"/>
<path d="M25.7128 9.68683C24.2424 9.68683 23.0461 8.49058 23.0461 7.0202C23.0461 5.54983 24.2424 4.35352 25.7128 4.35352C27.1832 4.35352 28.3794 5.54977 28.3794 7.02014C28.3794 8.49052 27.1832 9.68683 25.7128 9.68683Z" fill="#844DB4"/>
</g>
<defs>
<clipPath id="clip0_246_11459">
<rect width="32" height="32" fill="white" transform="translate(0.410889 0.322266)"/>
</clipPath>
</defs>
</svg>
