<svg width="33" height="33" viewBox="0 0 33 33" fill="none" xmlns="http://www.w3.org/2000/svg">
<g clip-path="url(#clip0_297_8487)">
<path d="M23.8583 32.5H9.40293C4.56587 32.5 0.630615 28.5648 0.630615 23.7277V9.27238C0.630615 4.43525 4.56587 0.5 9.40293 0.5H23.8583C28.6954 0.5 32.6306 4.43525 32.6306 9.27238V23.7277C32.6306 28.5648 28.6954 32.5 23.8583 32.5Z" fill="#7A60FF"/>
<path d="M16.6307 25.2765C11.791 25.2765 7.85376 21.3392 7.85376 16.4996C7.85376 11.66 11.7911 7.72266 16.6307 7.72266C21.4703 7.72266 25.4077 11.6599 25.4077 16.4995C25.4077 21.3392 21.4703 25.2765 16.6307 25.2765ZM16.6307 9.61228C12.8331 9.61228 9.74345 12.7019 9.74345 16.4995C9.74345 20.2972 12.8331 23.3868 16.6307 23.3868C20.4284 23.3868 23.518 20.2972 23.518 16.4996C23.518 12.702 20.4284 9.61228 16.6307 9.61228Z" fill="white"/>
<path d="M25.9325 9.86456C24.4621 9.86456 23.2659 8.66831 23.2659 7.19794C23.2659 5.72756 24.4621 4.53125 25.9325 4.53125C27.4029 4.53125 28.5991 5.7275 28.5991 7.19788C28.5991 8.66825 27.4029 9.86456 25.9325 9.86456Z" fill="white"/>
</g>
<defs>
<clipPath id="clip0_297_8487">
<rect width="32" height="32" fill="white" transform="translate(0.630615 0.5)"/>
</clipPath>
</defs>
</svg>
