<svg width="23" height="23" viewBox="0 0 23 23" fill="none" xmlns="http://www.w3.org/2000/svg">
<g clip-path="url(#clip0_297_6196)">
<path d="M6.14324 3.89534C6.14324 3.89534 6.51127 3.5239 7.24733 2.78102C7.98339 2.03815 9.40098 1.66671 11.5001 1.66671C13.5992 1.66671 15.3849 2.40959 16.857 3.89534C18.3291 5.38109 19.0652 7.1599 19.0652 9.23177C19.0652 10.2132 18.8266 11.3309 18.3496 12.5849C17.8725 13.839 17.3273 14.9771 16.7139 15.9994C16.1005 17.0217 15.3985 18.0713 14.6079 19.1481C13.8173 20.225 13.2448 20.9678 12.8904 21.3767C12.536 21.7857 12.2362 22.1128 11.9908 22.3582C11.8545 22.5217 11.6909 22.6035 11.5001 22.6035C11.3093 22.6035 11.1457 22.5217 11.0094 22.3582C10.655 21.9765 10.2188 21.4585 9.70086 20.8043C9.18289 20.15 8.41957 19.1277 7.4109 17.7373C6.40222 16.347 5.57075 14.8817 4.91647 13.3414C4.2622 11.8012 3.93506 10.4313 3.93506 9.23177C3.93506 7.1599 4.67112 5.38109 6.14324 3.89534ZM11.5001 13.0756C12.5633 13.0756 13.4629 12.7008 14.199 11.9511C14.9351 11.2014 15.3031 10.3018 15.3031 9.25221C15.3031 8.20265 14.9351 7.30302 14.199 6.55333C13.4629 5.80364 12.5633 5.42879 11.5001 5.42879C10.4369 5.42879 9.53729 5.80364 8.80123 6.55333C8.06517 7.30302 7.69714 8.19583 7.69714 9.23177C7.69714 9.94057 7.86752 10.588 8.20829 11.1741C8.54906 11.7603 9.01251 12.2237 9.59863 12.5645C10.1847 12.9052 10.8186 13.0756 11.5001 13.0756Z" fill="#7A60FF"/>
</g>
<defs>
<clipPath id="clip0_297_6196">
<rect width="22" height="22" fill="white" transform="matrix(1 0 0 -1 0.5 22.8896)"/>
</clipPath>
</defs>
</svg>
