<svg width="17" height="22" viewBox="0 0 17 22" fill="none" xmlns="http://www.w3.org/2000/svg">
<path d="M3.14324 2.89558C3.14324 2.89558 3.51127 2.52414 4.24733 1.78127C4.98339 1.03839 6.40098 0.666956 8.50011 0.666956C10.5992 0.666956 12.3849 1.40983 13.857 2.89558C15.3291 4.38133 16.0652 6.16014 16.0652 8.23201C16.0652 9.21342 15.8266 10.3311 15.3496 11.5852C14.8725 12.8392 14.3273 13.9774 13.7139 14.9997C13.1005 16.022 12.3985 17.0715 11.6079 18.1484C10.8173 19.2252 10.2448 19.9681 9.89045 20.377C9.53605 20.7859 9.23617 21.1131 8.99082 21.3584C8.85451 21.522 8.69094 21.6038 8.50011 21.6038C8.30928 21.6038 8.14572 21.522 8.00941 21.3584C7.65501 20.9767 7.21883 20.4588 6.70086 19.8045C6.18289 19.1502 5.41957 18.1279 4.4109 16.7376C3.40222 15.3473 2.57075 13.882 1.91647 12.3417C1.2622 10.8014 0.935059 9.43152 0.935059 8.23201C0.935059 6.16014 1.67112 4.38133 3.14324 2.89558ZM8.50011 12.0759C9.56331 12.0759 10.4629 11.701 11.199 10.9513C11.9351 10.2017 12.3031 9.30202 12.3031 8.25246C12.3031 7.20289 11.9351 6.30326 11.199 5.55357C10.4629 4.80388 9.56331 4.42904 8.50011 4.42904C7.43692 4.42904 6.53729 4.80388 5.80123 5.55357C5.06517 6.30326 4.69714 7.19608 4.69714 8.23201C4.69714 8.94081 4.86752 9.58827 5.20829 10.1744C5.54906 10.7605 6.01251 11.224 6.59863 11.5647C7.18475 11.9055 7.81858 12.0759 8.50011 12.0759Z" fill="#844DB4"/>
</svg>
