<svg width="40" height="41" viewBox="0 0 40 41" fill="none" xmlns="http://www.w3.org/2000/svg">
<path d="M38.5875 33L34.675 26.2375C32.5607 29.5086 29.4155 31.9807 25.7375 33.2625L28.8375 38.625C28.9477 38.8158 29.1063 38.9741 29.2972 39.0838C29.4882 39.1936 29.7048 39.2509 29.925 39.25C30.1432 39.2487 30.3572 39.1903 30.5458 39.0807C30.7344 38.9711 30.891 38.814 31 38.625L33.175 34.875H37.5C37.7203 34.8759 37.9369 34.8186 38.1279 34.7088C38.3188 34.5991 38.4774 34.4408 38.5875 34.25C38.6973 34.06 38.755 33.8445 38.755 33.625C38.755 33.4056 38.6973 33.1901 38.5875 33Z" fill="#844DB4"/>
<path d="M5.32509 26.2375L1.41259 33C1.30288 33.1901 1.24512 33.4056 1.24512 33.625C1.24512 33.8445 1.30288 34.06 1.41259 34.25C1.52272 34.4408 1.6813 34.5991 1.87227 34.7088C2.06324 34.8186 2.27982 34.8759 2.50009 34.875H6.82509L9.00008 38.625C9.10915 38.814 9.26577 38.9711 9.45435 39.0807C9.64294 39.1903 9.85694 39.2487 10.0751 39.25C10.2953 39.2509 10.5119 39.1936 10.7029 39.0838C10.8939 38.9741 11.0525 38.8158 11.1626 38.625L14.2626 33.2625C10.5847 31.9807 7.43948 29.5086 5.32509 26.2375Z" fill="#844DB4"/>
<path d="M21.25 13.6L20 11.1L18.75 13.6C18.6596 13.7796 18.5271 13.9348 18.3639 14.0523C18.2007 14.1698 18.0115 14.2462 17.8125 14.275L15.125 14.675L17.075 16.6C17.2197 16.7405 17.3282 16.9139 17.3913 17.1055C17.4545 17.297 17.4703 17.501 17.4375 17.7L16.975 20.4L19.3625 19.15C19.5452 19.0596 19.7462 19.0126 19.95 19.0126C20.1538 19.0126 20.3548 19.0596 20.5375 19.15L22.925 20.4L22.5 17.7C22.4672 17.501 22.483 17.297 22.5462 17.1055C22.6093 16.9139 22.7178 16.7405 22.8625 16.6L24.8125 14.675L22.1375 14.25C21.9498 14.2165 21.7722 14.1405 21.6184 14.0279C21.4646 13.9152 21.3386 13.7688 21.25 13.6Z" fill="#844DB4"/>
<path d="M35 16.75C35 13.7833 34.1203 10.8832 32.472 8.41645C30.8238 5.94972 28.4811 4.02713 25.7403 2.89181C22.9994 1.7565 19.9834 1.45945 17.0737 2.03823C14.1639 2.61701 11.4912 4.04562 9.3934 6.1434C7.29562 8.24119 5.86701 10.9139 5.28823 13.8237C4.70945 16.7334 5.0065 19.7494 6.14181 22.4903C7.27713 25.2311 9.19972 27.5738 11.6665 29.222C14.1332 30.8703 17.0333 31.75 20 31.75C23.9783 31.75 27.7936 30.1697 30.6066 27.3566C33.4197 24.5436 35 20.7283 35 16.75ZM28.375 14.7L25.0875 17.925L25.8625 22.475C25.9071 22.7094 25.8838 22.9516 25.7952 23.1731C25.7066 23.3946 25.5564 23.5861 25.3625 23.725C25.1515 23.8778 24.898 23.9608 24.6375 23.9625C24.4323 23.9615 24.2306 23.91 24.05 23.8125L20 21.65L15.95 23.7875C15.7524 23.8842 15.5327 23.9271 15.3133 23.9117C15.0938 23.8963 14.8822 23.8233 14.7 23.7C14.5061 23.5611 14.3559 23.3696 14.2673 23.1481C14.1787 22.9266 14.1554 22.6844 14.2 22.45L14.975 17.9L11.625 14.7C11.4565 14.5378 11.3369 14.3315 11.2798 14.1047C11.2227 13.8778 11.2304 13.6395 11.302 13.4168C11.3737 13.1941 11.5063 12.996 11.685 12.845C11.8636 12.694 12.081 12.5961 12.3125 12.5625L16.85 11.9L18.875 7.76251C18.9774 7.55117 19.1372 7.37293 19.3361 7.24822C19.5351 7.12351 19.7652 7.05737 20 7.05737C20.2348 7.05737 20.4649 7.12351 20.6639 7.24822C20.8628 7.37293 21.0226 7.55117 21.125 7.76251L23.15 11.9L27.6875 12.5625C27.919 12.5961 28.1364 12.694 28.3151 12.845C28.4937 12.996 28.6264 13.1941 28.698 13.4168C28.7696 13.6395 28.7773 13.8778 28.7202 14.1047C28.6631 14.3315 28.5435 14.5378 28.375 14.7Z" fill="#844DB4"/>
</svg>
