<svg width="29" height="29" viewBox="0 0 29 29" fill="none" xmlns="http://www.w3.org/2000/svg">
<path d="M10.2493 8.07734L8.15475 11.118C9.0735 12.3867 10.211 13.7484 11.4743 15.0883C13.4485 17.1883 15.5758 19.0805 17.5337 20.4969L17.4844 20.4477L20.6837 18.2109C21.3508 17.7406 22.2641 17.8227 22.8438 18.4023L26.0977 21.6562C26.754 22.3125 26.754 23.3789 26.0977 24.0406L25.6985 24.4398C23.5219 26.6109 20.1641 27.1141 17.4735 25.6266C17.4243 25.5992 17.3696 25.5664 17.3149 25.5391C15.4501 24.4727 13.3118 22.8539 11.1352 20.8687C10.5446 20.3273 9.97038 19.775 9.4071 19.2172C7.38913 17.1992 5.65006 15.0063 4.28288 13.0211C3.76335 12.2719 3.33131 11.5445 2.98131 10.8555C1.6196 8.18125 2.15006 4.93828 4.27194 2.81641L4.40866 2.67969C5.06491 2.02344 6.13131 2.02344 6.79303 2.67969L10.0524 5.93906C10.6266 6.50781 10.7087 7.41016 10.2493 8.07734Z" fill="#844DB4"/>
<path d="M15.3133 9.70547C15.3898 10.0719 15.7234 10.318 16.0953 10.318C17.293 10.3289 18.2664 11.3023 18.2773 12.5C18.2828 12.8719 18.5289 13.2055 18.8898 13.282C19.393 13.3859 19.8359 13.0031 19.8359 12.5164C19.8359 10.4438 18.1461 8.75391 16.0734 8.75391C15.5922 8.76484 15.2094 9.20234 15.3133 9.70547Z" fill="#844DB4"/>
<path d="M15.2969 6.3375C15.3187 6.75312 15.6851 7.07031 16.1008 7.07031C19.0867 7.08125 21.5148 9.50937 21.5312 12.5008C21.5312 12.9219 21.8484 13.2828 22.2641 13.3047C22.718 13.332 23.0898 12.9711 23.0898 12.5281C23.0898 8.66172 19.9453 5.51172 16.0734 5.51172C15.6305 5.51172 15.2695 5.88359 15.2969 6.3375Z" fill="#844DB4"/>
<path d="M15.2969 3.08359C15.3187 3.49922 15.6742 3.82187 16.0898 3.82187C20.8805 3.82734 24.7742 7.72656 24.7797 12.5117C24.7797 12.9273 25.1023 13.2828 25.518 13.3047C25.9664 13.3266 26.3383 12.9711 26.3383 12.5227C26.3383 6.8625 21.7336 2.25781 16.0734 2.25781C15.6304 2.25781 15.275 2.62969 15.2969 3.08359Z" fill="#844DB4"/>
<path d="M15.3133 9.70547C15.3898 10.0719 15.7234 10.318 16.0953 10.318C17.293 10.3289 18.2664 11.3023 18.2773 12.5C18.2828 12.8719 18.5289 13.2055 18.8898 13.282C19.393 13.3859 19.8359 13.0031 19.8359 12.5164C19.8359 10.4438 18.1461 8.75391 16.0734 8.75391C15.5922 8.76484 15.2094 9.20234 15.3133 9.70547Z" fill="#844DB4"/>
<path d="M15.2969 6.3375C15.3187 6.75312 15.6851 7.07031 16.1008 7.07031C19.0867 7.08125 21.5148 9.50937 21.5312 12.5008C21.5312 12.9219 21.8484 13.2828 22.2641 13.3047C22.718 13.332 23.0898 12.9711 23.0898 12.5281C23.0898 8.66172 19.9453 5.51172 16.0734 5.51172C15.6305 5.51172 15.2695 5.88359 15.2969 6.3375Z" fill="#844DB4"/>
<path d="M15.3133 9.70547C15.3898 10.0719 15.7234 10.318 16.0953 10.318C17.293 10.3289 18.2664 11.3023 18.2773 12.5C18.2828 12.8719 18.5289 13.2055 18.8898 13.282C19.393 13.3859 19.8359 13.0031 19.8359 12.5164C19.8359 10.4438 18.1461 8.75391 16.0734 8.75391C15.5922 8.76484 15.2094 9.20234 15.3133 9.70547Z" fill="#844DB4"/>
<path d="M15.2969 6.3375C15.3187 6.75312 15.6851 7.07031 16.1008 7.07031C19.0867 7.08125 21.5148 9.50937 21.5312 12.5008C21.5312 12.9219 21.8484 13.2828 22.2641 13.3047C22.718 13.332 23.0898 12.9711 23.0898 12.5281C23.0898 8.66172 19.9453 5.51172 16.0734 5.51172C15.6305 5.51172 15.2695 5.88359 15.2969 6.3375Z" fill="#844DB4"/>
<path d="M15.3133 9.70547C15.3898 10.0719 15.7234 10.318 16.0953 10.318C17.293 10.3289 18.2664 11.3023 18.2773 12.5C18.2828 12.8719 18.5289 13.2055 18.8898 13.282C19.393 13.3859 19.8359 13.0031 19.8359 12.5164C19.8359 10.4438 18.1461 8.75391 16.0734 8.75391C15.5922 8.76484 15.2094 9.20234 15.3133 9.70547Z" fill="#844DB4"/>
<path d="M15.3133 9.70547C15.3898 10.0719 15.7234 10.318 16.0953 10.318C17.293 10.3289 18.2664 11.3023 18.2773 12.5C18.2828 12.8719 18.5289 13.2055 18.8898 13.282C19.393 13.3859 19.8359 13.0031 19.8359 12.5164C19.8359 10.4438 18.1461 8.75391 16.0734 8.75391C15.5922 8.76484 15.2094 9.20234 15.3133 9.70547Z" fill="#844DB4"/>
</svg>
