<svg width="23" height="23" viewBox="0 0 23 23" fill="none" xmlns="http://www.w3.org/2000/svg">
<g clip-path="url(#clip0_297_6207)">
<path d="M20.0057 16.2735L17.593 13.82C17.1569 13.3565 16.6593 13.1248 16.1005 13.1248C15.5416 13.1248 15.0305 13.3565 14.567 13.82L13.1767 15.2103L12.9313 15.0876C12.9041 15.0604 12.8768 15.0467 12.8496 15.0467C12.6315 14.9377 12.4815 14.8559 12.3997 14.8014C11.0912 13.9835 9.87805 12.8794 8.76033 11.4891C8.24236 10.8076 7.84707 10.1806 7.57446 9.60807C7.79255 9.41724 8.13332 9.07647 8.59676 8.58577C8.62403 8.55851 8.68536 8.50398 8.78078 8.4222C8.87619 8.34041 8.93753 8.27226 8.96479 8.21774C9.42824 7.75429 9.65996 7.24314 9.65996 6.68428C9.65996 6.12542 9.42824 5.61427 8.96479 5.15082L7.77892 3.96495C7.58809 3.77412 7.43815 3.63781 7.32911 3.55603C7.00197 3.20163 6.72935 2.92901 6.51126 2.73818C6.07508 2.302 5.58437 2.08391 5.03914 2.08391C4.49391 2.08391 3.98958 2.302 3.52613 2.73818L2.01312 4.25119C1.44063 4.82368 1.12712 5.50522 1.0726 6.2958C0.990816 7.24995 1.18165 8.34041 1.64509 9.56718C2.32663 11.4755 3.44435 13.3565 4.99825 15.2103C6.96108 17.5275 9.2783 19.3404 11.9499 20.649C13.3948 21.3305 14.6897 21.7122 15.8347 21.7939H16.1209C17.1296 21.7939 17.9747 21.4259 18.6562 20.6899C18.7925 20.499 19.0515 20.2264 19.4332 19.872L20.0057 19.2995C20.4691 18.8361 20.7009 18.3249 20.7009 17.7661C20.7009 17.2072 20.4691 16.7097 20.0057 16.2735Z" fill="#7A60FF"/>
<path d="M11.9704 5.60064C12.0658 5.73694 12.1953 5.81873 12.3588 5.84599C13.5311 6.03682 14.5398 6.55479 15.3849 7.39989C16.2572 8.27226 16.7888 9.29456 16.9797 10.4668C17.0342 10.7939 17.225 10.9575 17.5522 10.9575H17.6748C17.8384 10.9303 17.9679 10.8485 18.0633 10.7122C18.1587 10.5759 18.1928 10.4259 18.1655 10.2623C17.9202 8.84475 17.2795 7.61798 16.2436 6.58205C15.2077 5.54611 13.9809 4.90547 12.5633 4.66012C12.3997 4.63285 12.2498 4.66693 12.1135 4.76235C11.9772 4.85776 11.8954 4.98725 11.8681 5.15082C11.8409 5.31439 11.875 5.46433 11.9704 5.60064Z" fill="#7A60FF"/>
<path d="M21.8254 10.5486C21.9208 10.4123 21.9549 10.2623 21.9276 10.0988C21.546 7.75429 20.5032 5.73013 18.7994 4.02629C17.0955 2.32244 15.0714 1.26606 12.7269 0.857141C12.5633 0.82988 12.4134 0.863956 12.2771 0.959372C12.1408 1.05479 12.059 1.18428 12.0317 1.34785C12.0044 1.51142 12.0385 1.66136 12.1339 1.79766C12.2294 1.93397 12.3588 2.01575 12.5224 2.04301C14.6215 2.39741 16.4344 3.33793 17.9611 4.86458C19.4877 6.39122 20.4282 8.20411 20.7826 10.3032C20.8372 10.6304 21.028 10.7939 21.3551 10.7939C21.3824 10.7939 21.4233 10.7803 21.4778 10.7531C21.6141 10.7531 21.73 10.6849 21.8254 10.5486Z" fill="#7A60FF"/>
</g>
<defs>
<clipPath id="clip0_297_6207">
<rect width="22" height="22" fill="white" transform="matrix(1 0 0 -1 0.5 22.0801)"/>
</clipPath>
</defs>
</svg>
