<svg width="28" height="28" viewBox="0 0 28 28" fill="none" xmlns="http://www.w3.org/2000/svg">
<path d="M9.83791 7.75471L7.74338 10.7953C8.66213 12.0641 9.79962 13.4258 11.0629 14.7656C13.0371 16.8656 15.1645 18.7578 17.1223 20.1742L17.0731 20.125L20.2723 17.8883C20.9395 17.418 21.8528 17.5 22.4324 18.0797L25.6863 21.3336C26.3426 21.9899 26.3426 23.0563 25.6863 23.718L25.2871 24.1172C23.1106 26.2883 19.7528 26.7914 17.0621 25.3039C17.0129 25.2766 16.9582 25.2438 16.9035 25.2164C15.0387 24.15 12.9004 22.5313 10.7238 20.5461C10.1332 20.0047 9.559 19.4524 8.99572 18.8946C6.97775 16.8766 5.23869 14.6836 3.8715 12.6985C3.35197 11.9492 2.91994 11.2219 2.56994 10.5328C1.20822 7.85862 1.73869 4.61565 3.86056 2.49377L3.99728 2.35706C4.65353 1.70081 5.71994 1.70081 6.38166 2.35706L9.64103 5.61643C10.2153 6.18518 10.2973 7.08752 9.83791 7.75471Z" fill="white"/>
<path d="M14.9019 9.38442C14.9785 9.75083 15.3121 9.99692 15.6839 9.99692C16.8816 10.0079 17.855 10.9813 17.866 12.179C17.8714 12.5508 18.1175 12.8844 18.4785 12.961C18.9816 13.0649 19.4246 12.6821 19.4246 12.1954C19.4246 10.1227 17.7347 8.43286 15.6621 8.43286C15.1808 8.4438 14.798 8.8813 14.9019 9.38442Z" fill="#F2F2F3"/>
<path d="M14.8852 6.01566C14.9071 6.43129 15.2735 6.74847 15.6892 6.74847C18.6751 6.75941 21.1032 9.18754 21.1196 12.1789C21.1196 12.6 21.4368 12.961 21.8524 12.9828C22.3063 13.0102 22.6782 12.6493 22.6782 12.2063C22.6782 8.33988 19.5337 5.18988 15.6618 5.18988C15.2188 5.18988 14.8579 5.56176 14.8852 6.01566Z" fill="#F2F2F3"/>
<path d="M14.8857 2.76176C14.9076 3.17738 15.2631 3.50004 15.6787 3.50004C20.4693 3.50551 24.3631 7.40472 24.3685 12.1899C24.3685 12.6055 24.6912 12.961 25.1068 12.9828C25.5553 13.0047 25.9271 12.6493 25.9271 12.2008C25.9271 6.54066 21.3224 1.93597 15.6623 1.93597C15.2193 1.93597 14.8638 2.30785 14.8857 2.76176Z" fill="#F2F2F3"/>
<path d="M14.9019 9.38442C14.9785 9.75083 15.3121 9.99692 15.6839 9.99692C16.8816 10.0079 17.855 10.9813 17.866 12.179C17.8714 12.5508 18.1175 12.8844 18.4785 12.961C18.9816 13.0649 19.4246 12.6821 19.4246 12.1954C19.4246 10.1227 17.7347 8.43286 15.6621 8.43286C15.1808 8.4438 14.798 8.8813 14.9019 9.38442Z" fill="#F2F2F3"/>
<path d="M14.8852 6.01566C14.9071 6.43129 15.2735 6.74847 15.6892 6.74847C18.6751 6.75941 21.1032 9.18754 21.1196 12.1789C21.1196 12.6 21.4368 12.961 21.8524 12.9828C22.3063 13.0102 22.6782 12.6493 22.6782 12.2063C22.6782 8.33988 19.5337 5.18988 15.6618 5.18988C15.2188 5.18988 14.8579 5.56176 14.8852 6.01566Z" fill="#F2F2F3"/>
<path d="M14.9019 9.38442C14.9785 9.75083 15.3121 9.99692 15.6839 9.99692C16.8816 10.0079 17.855 10.9813 17.866 12.179C17.8714 12.5508 18.1175 12.8844 18.4785 12.961C18.9816 13.0649 19.4246 12.6821 19.4246 12.1954C19.4246 10.1227 17.7347 8.43286 15.6621 8.43286C15.1808 8.4438 14.798 8.8813 14.9019 9.38442Z" fill="#F2F2F3"/>
<path d="M14.8852 6.01566C14.9071 6.43129 15.2735 6.74847 15.6892 6.74847C18.6751 6.75941 21.1032 9.18754 21.1196 12.1789C21.1196 12.6 21.4368 12.961 21.8524 12.9828C22.3063 13.0102 22.6782 12.6493 22.6782 12.2063C22.6782 8.33988 19.5337 5.18988 15.6618 5.18988C15.2188 5.18988 14.8579 5.56176 14.8852 6.01566Z" fill="#F2F2F3"/>
<path d="M14.9019 9.38442C14.9785 9.75083 15.3121 9.99692 15.6839 9.99692C16.8816 10.0079 17.855 10.9813 17.866 12.179C17.8714 12.5508 18.1175 12.8844 18.4785 12.961C18.9816 13.0649 19.4246 12.6821 19.4246 12.1954C19.4246 10.1227 17.7347 8.43286 15.6621 8.43286C15.1808 8.4438 14.798 8.8813 14.9019 9.38442Z" fill="#F2F2F3"/>
<path d="M14.9019 9.38442C14.9785 9.75083 15.3121 9.99692 15.6839 9.99692C16.8816 10.0079 17.855 10.9813 17.866 12.179C17.8714 12.5508 18.1175 12.8844 18.4785 12.961C18.9816 13.0649 19.4246 12.6821 19.4246 12.1954C19.4246 10.1227 17.7347 8.43286 15.6621 8.43286C15.1808 8.4438 14.798 8.8813 14.9019 9.38442Z" fill="#F2F2F3"/>
</svg>
