<svg width="24" height="25" viewBox="0 0 24 25" fill="none" xmlns="http://www.w3.org/2000/svg">
<g clip-path="url(#clip0_44_2019)">
<path d="M19.2048 17.2435C19.0296 17.0683 19.0056 16.7659 19.14 16.5571C20.196 14.9323 20.8152 12.9979 20.8152 10.9195C20.8152 5.17874 16.1448 0.510742 10.4088 0.510742C4.668 0.510742 0 5.17874 0 10.9195C0 16.6579 4.668 21.3259 10.4088 21.3259C12.6432 21.3259 14.712 20.6083 16.4112 19.4035C16.6104 19.2595 16.9104 19.2787 17.0856 19.4515L20.8056 23.1715C20.8296 23.1955 20.856 23.2195 20.8824 23.2387C20.9256 23.2747 21.1056 23.4427 21.2784 23.6179L21.72 24.0571C21.8952 24.2299 22.1784 24.2299 22.3512 24.0571L23.868 22.5403C24.0432 22.3651 24.0432 22.0819 23.8704 21.9067L19.2048 17.2435ZM16.704 15.7675C16.3608 16.2139 15.9744 16.6219 15.5472 16.9843C14.16 18.1627 12.3672 18.8779 10.4088 18.8779C6.0192 18.8779 2.448 15.3067 2.448 10.9195C2.448 6.53234 6.0192 2.95874 10.4088 2.95874C14.796 2.95874 18.3672 6.52994 18.3672 10.9195C18.3672 12.7435 17.7408 14.4235 16.704 15.7675Z" fill="#BEBEBE"/>
</g>
<defs>
<clipPath id="clip0_44_2019">
<rect width="24" height="24" fill="white" transform="translate(0 0.354736)"/>
</clipPath>
</defs>
</svg>
