<svg width="40" height="41" viewBox="0 0 40 41" fill="none" xmlns="http://www.w3.org/2000/svg">
<g clip-path="url(#clip0_297_8319)">
<path d="M34.8632 33.5891C35.1171 33.8422 35.2569 34.1813 35.2569 34.5438C35.2569 34.9063 35.1171 35.2454 34.8632 35.4985L34.753 35.6094C34.2265 36.136 33.3694 36.136 32.8429 35.6094L26.3726 29.1391L25.3397 28.1063L24.553 27.3196C24.9929 27.0266 25.4101 26.686 25.7983 26.2985C26.0999 25.9969 26.3726 25.6782 26.6171 25.3446L27.3983 26.1258L29.4616 28.1883L29.5022 28.229L34.8632 33.5891ZM25.0265 25.5266C23.6405 26.9118 21.8202 27.604 19.9999 27.604C18.1804 27.604 16.3608 26.911 14.9757 25.5266C13.6327 24.1836 12.8937 22.3985 12.8937 20.5001C12.8937 18.6024 13.6327 16.818 14.9757 15.4758C16.3179 14.1329 18.1022 13.3938 19.9999 13.3938C21.8983 13.3938 23.6835 14.1329 25.0265 15.4758C27.796 18.2462 27.796 22.7547 25.0265 25.5266ZM23.9647 20.5001C23.9647 18.3149 22.1866 16.5368 19.9999 16.5368C17.8147 16.5368 16.0366 18.3149 16.0366 20.5001C16.0366 22.6868 17.8147 24.4649 19.9999 24.4649C22.1866 24.4649 23.9647 22.6868 23.9647 20.5001ZM37.6976 20.2266C35.9335 17.1766 33.3968 14.6188 30.3608 12.829C27.2335 10.9852 23.6507 10.011 19.9999 10.011C16.3491 10.011 12.7671 10.9852 9.63975 12.829C6.60459 14.6188 4.06709 17.1766 2.30225 20.2266C2.20459 20.3962 2.20459 20.604 2.30225 20.7735C4.06709 23.8235 6.60459 26.3813 9.63975 28.1712C12.7671 30.0149 16.3491 30.9891 19.9999 30.9891C21.9874 30.9891 23.9483 30.7055 25.8335 30.1446L24.9483 29.2594L24.3835 28.6946C24.271 28.7555 24.1569 28.8133 24.0429 28.868C22.7968 29.4704 21.3976 29.7891 19.9999 29.7891C17.5155 29.7891 15.1827 28.8243 13.4304 27.0719C11.6749 25.3165 10.7077 22.9821 10.7077 20.5001C10.7077 18.018 11.6749 15.6844 13.4312 13.9305C15.1843 12.1751 17.5179 11.2079 19.9999 11.2079C22.4819 11.2079 24.8163 12.1751 26.5718 13.9305C28.0124 15.3712 28.9218 17.2001 29.2007 19.218C29.4702 21.1696 29.1062 23.193 28.1765 24.9172C28.1257 25.0118 28.0726 25.1063 28.0171 25.2008L29.9577 27.1407L30.7522 27.9344C33.6179 26.1571 36.0101 23.6938 37.6976 20.7735C37.7952 20.604 37.7952 20.3962 37.6976 20.2266ZM19.9999 7.15615C20.3014 7.15615 20.5458 6.91178 20.5458 6.61029V1.04732C20.5458 0.74584 20.3014 0.501465 19.9999 0.501465C19.6984 0.501465 19.454 0.74584 19.454 1.04732V6.61029C19.454 6.91178 19.6984 7.15615 19.9999 7.15615ZM30.0408 11.3151C30.1805 11.3151 30.3202 11.2619 30.4268 11.1553L34.3598 7.22225C34.573 7.00904 34.573 6.66342 34.3598 6.45021C34.1466 6.23701 33.801 6.23701 33.5878 6.45021L29.6547 10.3833C29.4415 10.5965 29.4415 10.9421 29.6547 11.1553C29.7613 11.2619 29.9011 11.3151 30.0408 11.3151ZM9.57521 11.1553C9.68178 11.2619 9.82154 11.3151 9.96123 11.3151C10.1009 11.3151 10.2407 11.2619 10.3472 11.1553C10.5604 10.9421 10.5604 10.5965 10.3472 10.3833L6.4142 6.45021C6.201 6.23701 5.85537 6.23701 5.64217 6.45021C5.42896 6.66342 5.42896 7.00904 5.64217 7.22225L9.57521 11.1553ZM19.9999 33.8461C19.6984 33.8461 19.454 34.0905 19.454 34.392V39.9528C19.454 40.2543 19.6984 40.4986 19.9999 40.4986C20.3014 40.4986 20.5458 40.2543 20.5458 39.9528V34.392C20.5458 34.0905 20.3014 33.8461 19.9999 33.8461ZM9.57521 29.8472L5.64217 33.7802C5.42896 33.9934 5.42896 34.339 5.64217 34.5522C5.74881 34.6588 5.88842 34.7121 6.02818 34.7121C6.16787 34.7121 6.30764 34.6587 6.4142 34.5522L10.3472 30.6191C10.5604 30.4059 10.5604 30.0604 10.3472 29.8472C10.134 29.6339 9.78842 29.6339 9.57521 29.8472Z" fill="#844DB4"/>
</g>
<defs>
<clipPath id="clip0_297_8319">
<rect width="40" height="40" fill="white" transform="translate(0 0.5)"/>
</clipPath>
</defs>
</svg>
