<svg width="40" height="41" viewBox="0 0 40 41" fill="none" xmlns="http://www.w3.org/2000/svg">
<g clip-path="url(#clip0_297_8661)">
<path d="M34.8632 33.5886C35.1171 33.8418 35.2569 34.1808 35.2569 34.5433C35.2569 34.9058 35.1171 35.2449 34.8632 35.498L34.753 35.6089C34.2265 36.1355 33.3694 36.1355 32.8429 35.6089L26.3726 29.1386L25.3397 28.1058L24.553 27.3191C24.9929 27.0261 25.4101 26.6855 25.7983 26.298C26.0999 25.9964 26.3726 25.6777 26.6171 25.3441L27.3983 26.1253L29.4616 28.1878L29.5022 28.2285L34.8632 33.5886ZM25.0265 25.5261C23.6405 26.9113 21.8202 27.6035 19.9999 27.6035C18.1804 27.6035 16.3608 26.9105 14.9757 25.5261C13.6327 24.1832 12.8937 22.398 12.8937 20.4996C12.8937 18.6019 13.6327 16.8175 14.9757 15.4754C16.3179 14.1324 18.1022 13.3933 19.9999 13.3933C21.8983 13.3933 23.6835 14.1324 25.0265 15.4754C27.796 18.2457 27.796 22.7543 25.0265 25.5261ZM23.9647 20.4996C23.9647 18.3144 22.1866 16.5363 19.9999 16.5363C17.8147 16.5363 16.0366 18.3144 16.0366 20.4996C16.0366 22.6863 17.8147 24.4644 19.9999 24.4644C22.1866 24.4644 23.9647 22.6863 23.9647 20.4996ZM37.6976 20.2261C35.9335 17.1761 33.3968 14.6183 30.3608 12.8285C27.2335 10.9847 23.6507 10.0105 19.9999 10.0105C16.3491 10.0105 12.7671 10.9847 9.63975 12.8285C6.60459 14.6183 4.06709 17.1761 2.30225 20.2261C2.20459 20.3957 2.20459 20.6035 2.30225 20.773C4.06709 23.823 6.60459 26.3808 9.63975 28.1707C12.7671 30.0144 16.3491 30.9886 19.9999 30.9886C21.9874 30.9886 23.9483 30.705 25.8335 30.1441L24.9483 29.2589L24.3835 28.6941C24.271 28.755 24.1569 28.8128 24.0429 28.8675C22.7968 29.4699 21.3976 29.7886 19.9999 29.7886C17.5155 29.7886 15.1827 28.8238 13.4304 27.0714C11.6749 25.316 10.7077 22.9816 10.7077 20.4996C10.7077 18.0175 11.6749 15.6839 13.4312 13.93C15.1843 12.1746 17.5179 11.2074 19.9999 11.2074C22.4819 11.2074 24.8163 12.1746 26.5718 13.93C28.0124 15.3707 28.9218 17.1996 29.2007 19.2175C29.4702 21.1691 29.1062 23.1925 28.1765 24.9168C28.1257 25.0113 28.0726 25.1058 28.0171 25.2003L29.9577 27.1402L30.7522 27.9339C33.6179 26.1566 36.0101 23.6933 37.6976 20.773C37.7952 20.6035 37.7952 20.3957 37.6976 20.2261ZM19.9999 7.15566C20.3014 7.15566 20.5458 6.91129 20.5458 6.6098V1.04684C20.5458 0.745352 20.3014 0.500977 19.9999 0.500977C19.6984 0.500977 19.454 0.745352 19.454 1.04684V6.6098C19.454 6.91129 19.6984 7.15566 19.9999 7.15566ZM30.0408 11.3146C30.1805 11.3146 30.3202 11.2614 30.4268 11.1548L34.3598 7.22176C34.573 7.00855 34.573 6.66293 34.3598 6.44973C34.1466 6.23652 33.801 6.23652 33.5878 6.44973L29.6547 10.3828C29.4415 10.596 29.4415 10.9416 29.6547 11.1548C29.7613 11.2614 29.9011 11.3146 30.0408 11.3146ZM9.57521 11.1548C9.68178 11.2614 9.82154 11.3146 9.96123 11.3146C10.1009 11.3146 10.2407 11.2614 10.3472 11.1548C10.5604 10.9416 10.5604 10.596 10.3472 10.3828L6.4142 6.44973C6.201 6.23652 5.85537 6.23652 5.64217 6.44973C5.42896 6.66293 5.42896 7.00855 5.64217 7.22176L9.57521 11.1548ZM19.9999 33.8457C19.6984 33.8457 19.454 34.09 19.454 34.3915V39.9523C19.454 40.2538 19.6984 40.4982 19.9999 40.4982C20.3014 40.4982 20.5458 40.2538 20.5458 39.9523V34.3915C20.5458 34.09 20.3014 33.8457 19.9999 33.8457ZM9.57521 29.8467L5.64217 33.7797C5.42896 33.9929 5.42896 34.3385 5.64217 34.5517C5.74881 34.6583 5.88842 34.7116 6.02818 34.7116C6.16787 34.7116 6.30764 34.6582 6.4142 34.5517L10.3472 30.6186C10.5604 30.4054 10.5604 30.0599 10.3472 29.8467C10.134 29.6334 9.78842 29.6334 9.57521 29.8467Z" fill="#7A60FF"/>
</g>
<defs>
<clipPath id="clip0_297_8661">
<rect width="40" height="40" fill="white" transform="translate(0 0.5)"/>
</clipPath>
</defs>
</svg>
